<svg width="20" height="20" viewBox="0 0 20 20" fill="none" xmlns="http://www.w3.org/2000/svg">
<path fill-rule="evenodd" clip-rule="evenodd" d="M10 18C12.2333 18 14.125 17.225 15.675 15.675C17.225 14.125 18 12.2333 18 10C18 7.76667 17.225 5.875 15.675 4.325C14.125 2.775 12.2333 2 10 2C7.76667 2 5.875 2.775 4.325 4.325C2.775 5.875 2 7.76667 2 10C2 12.2333 2.775 14.125 4.325 15.675C5.875 17.225 7.76667 18 10 18ZM11 15H9V11H5V9H9V5H11V9H15V11H11V15Z" fill="white" fillOpacity="0.9"/>
<path fill-rule="evenodd" clip-rule="evenodd" d="M6.1 19.2125C7.31667 19.7375 8.61667 20 10 20C11.3833 20 12.6833 19.7375 13.9 19.2125C15.1167 18.6875 16.175 17.975 17.075 17.075C17.975 16.175 18.6875 15.1167 19.2125 13.9C19.7375 12.6833 20 11.3833 20 10C20 8.61667 19.7375 7.31667 19.2125 6.1C18.6875 4.88333 17.975 3.825 17.075 2.925C16.175 2.025 15.1167 1.3125 13.9 0.7875C12.6833 0.2625 11.3833 0 10 0C8.61667 0 7.31667 0.2625 6.1 0.7875C4.88333 1.3125 3.825 2.025 2.925 2.925C2.025 3.825 1.3125 4.88333 0.7875 6.1C0.2625 7.31667 0 8.61667 0 10C0 11.3833 0.2625 12.6833 0.7875 13.9C1.3125 15.1167 2.025 16.175 2.925 17.075C3.825 17.975 4.88333 18.6875 6.1 19.2125ZM15.675 15.675C14.125 17.225 12.2333 18 10 18C7.76667 18 5.875 17.225 4.325 15.675C2.775 14.125 2 12.2333 2 10C2 7.76667 2.775 5.875 4.325 4.325C5.875 2.775 7.76667 2 10 2C12.2333 2 14.125 2.775 15.675 4.325C17.225 5.875 18 7.76667 18 10C18 12.2333 17.225 14.125 15.675 15.675Z" fill="white" fillOpacity="0.9"/>
</svg>
