<svg xmlns="http://www.w3.org/2000/svg" height="300" width="1200" version="1.0" viewBox="-150 -48.87475 1300 293.2485"><path d="M402.462 152.886c-37.699 27.787-92.341 42.613-139.388 42.613-65.966 0-125.352-24.399-170.28-64.978-3.53-3.191-.368-7.54 3.868-5.055 48.486 28.21 108.438 45.182 170.366 45.182 41.765 0 87.71-8.64 129.956-26.573 6.382-2.71 11.719 4.18 5.478 8.81" fill="#f90" fillRule="evenodd"/><path d="M418.135 134.954c-4.8-6.156-31.854-2.908-43.997-1.468-3.699.452-4.264-2.768-.931-5.083 21.546-15.165 56.901-10.788 61.024-5.705 4.123 5.112-1.073 40.552-21.32 57.467-3.107 2.598-6.072 1.214-4.688-2.231 4.546-11.352 14.74-36.796 9.912-42.98" fill="#f90" fillRule="evenodd"/><path d="M374.986 21.349V6.608c0-2.231 1.694-3.728 3.727-3.728h65.995c2.118 0 3.812 1.525 3.812 3.728V19.23c-.028 2.118-1.807 4.885-4.97 9.262l-34.198 48.825c12.708-.31 26.122 1.582 37.643 8.077 2.598 1.468 3.304 3.614 3.502 5.732v15.73c0 2.146-2.372 4.659-4.857 3.36-20.304-10.646-47.273-11.804-69.723.113-2.287 1.242-4.687-1.243-4.687-3.389V92.003c0-2.4.028-6.495 2.428-10.138l39.62-56.817h-34.48c-2.118 0-3.812-1.497-3.812-3.7m-240.738 91.975H114.17c-1.92-.141-3.445-1.581-3.586-3.417V6.862c0-2.061 1.722-3.7 3.869-3.7h18.722c1.949.085 3.502 1.582 3.643 3.446v13.47h.367C142.07 7.06 151.248.988 163.617.988c12.566 0 20.417 6.072 26.064 19.09C194.538 7.06 205.58.988 217.412.988c8.415 0 17.621 3.474 23.24 11.268 6.354 8.67 5.055 21.264 5.055 32.305l-.028 65.035c0 2.061-1.722 3.727-3.868 3.727h-20.05c-2.005-.141-3.615-1.75-3.615-3.727V54.98c0-4.348.396-15.192-.565-19.315-1.496-6.919-5.986-8.867-11.803-8.867-4.858 0-9.94 3.247-12.002 8.443-2.061 5.196-1.864 13.894-1.864 19.74v54.614c0 2.061-1.722 3.727-3.869 3.727h-20.05c-2.032-.141-3.614-1.75-3.614-3.727l-.028-54.615c0-11.493 1.892-28.408-12.369-28.408-14.43 0-13.865 16.491-13.865 28.408v54.615c0 2.061-1.723 3.727-3.869 3.727M505.337.988c29.792 0 45.916 25.585 45.916 58.116 0 31.43-17.818 56.365-45.916 56.365-29.256 0-45.183-25.584-45.183-57.466 0-32.08 16.125-57.015 45.183-57.015m.17 21.038c-14.798 0-15.73 20.163-15.73 32.73 0 12.594-.198 39.478 15.56 39.478 15.56 0 16.294-21.688 16.294-34.904 0-8.697-.367-19.09-2.994-27.335-2.259-7.173-6.749-9.969-13.13-9.969m84.377 91.297h-19.993c-2.005-.141-3.614-1.75-3.614-3.727l-.029-103.073c.17-1.892 1.836-3.36 3.869-3.36h18.61c1.75.084 3.19 1.27 3.586 2.88V21.8h.367C598.3 7.71 606.178.988 620.044.988c9.008 0 17.79 3.248 23.438 12.143 5.252 8.246 5.252 22.111 5.252 32.08v64.865c-.226 1.807-1.892 3.247-3.868 3.247H624.73c-1.835-.141-3.36-1.497-3.558-3.247v-55.97c0-11.267 1.3-27.759-12.566-27.759-4.886 0-9.376 3.276-11.606 8.246-2.824 6.297-3.191 12.566-3.191 19.513v55.49c-.029 2.061-1.78 3.727-3.926 3.727m71.417-8.189c0-5.196 4.434-9.376 9.884-9.376s9.884 4.18 9.884 9.376c0 5.168-4.433 9.403-9.884 9.403-5.45 0-9.883-4.235-9.883-9.403m212.724 8.217c-2.09-.084-3.727-1.694-3.727-3.727V6.58c.112-1.836 1.666-3.276 3.586-3.389h7.37c2.033 0 3.671 1.468 3.84 3.389v15.023C890.348 9.686 900.119.367 912.459.367h1.496c13.103 0 22.676 9.658 26.234 23.693C945.752 10.194 956.201.367 969.981.367h1.526c9.742 0 19.117 6.27 23.974 15.814 4.688 9.121 4.518 21.264 4.518 31.458l-.028 61.985c.028 1.977-1.581 3.586-3.586 3.727h-8.81c-1.921-.084-3.474-1.44-3.728-3.219V47.64c0-7.37.367-15.192-2.627-21.913-3.05-6.862-8.895-11.155-15.164-11.465-7.003.339-13.442 5.45-17.621 12.34-5.422 8.895-5.224 16.915-5.224 27.307v56.28c-.254 1.695-1.751 3.022-3.587 3.163h-8.754c-2.09-.084-3.756-1.694-3.756-3.727l-.056-66.108c0-6.071-.367-13.216-3.163-18.666-3.247-6.212-9.065-10.279-15.164-10.59-6.326.368-12.708 5.197-16.492 10.816-4.885 7.173-5.817 16.04-5.817 25.161v59.387c0 1.976-1.61 3.586-3.615 3.727h-8.782m-60.488 2.146c-28.493 0-41.257-29.058-41.257-58.116 0-30.555 14.995-57.015 43.686-57.015h1.524c27.9 0 41.794 28.183 41.794 57.24 0 30.781-15.39 57.89-44.25 57.89h-1.497m2.09-14.09c9.375-.311 16.774-6.129 21.15-15.815 3.926-8.697 4.689-18.666 4.689-28.21 0-10.392-1.13-21.236-6.015-30.131-4.377-7.766-11.889-12.708-19.852-12.99-8.867.31-16.803 6.325-20.784 15.588-3.587 8.02-4.688 18.666-4.688 27.533 0 9.968 1.299 21.49 5.422 30.159 4.01 8.217 11.72 13.555 20.078 13.865m-91.127-.452c12.792-.395 19.513-10.646 22.28-23.918.565-1.666 1.836-2.937 3.7-2.937l8.443-.028c2.005.085 3.84 1.61 3.671 3.473-3.897 22.62-17.536 37.954-36.965 37.954h-1.525c-28.295 0-40.494-28.409-40.494-57.24 0-28.607 12.368-57.89 40.664-57.89h1.525c19.654 0 33.66 15.135 36.71 37.755 0 1.694-1.581 3.162-3.445 3.36l-8.839-.113c-1.863-.254-3.078-1.835-3.36-3.614-2.118-12.623-9.375-22.676-21.462-23.072-19.23.622-24.709 24.286-24.709 42.5 0 17.536 4.575 43.15 23.806 43.77M322.376 64.103c0 7.822.198 14.345-3.755 21.292-3.191 5.648-8.274 9.12-13.894 9.12-7.71 0-12.228-5.873-12.228-14.542 0-17.113 15.334-20.22 29.877-20.22v4.35m20.248 48.938c-1.328 1.186-3.248 1.27-4.744.48-6.665-5.535-7.88-8.105-11.522-13.386-11.013 11.24-18.835 14.6-33.096 14.6-16.915 0-30.046-10.42-30.046-31.289 0-16.294 8.81-27.392 21.405-32.813 10.9-4.801 26.12-5.648 37.755-6.976V41.06c0-4.773.367-10.42-2.456-14.544-2.429-3.699-7.117-5.224-11.268-5.224-7.653 0-14.458 3.925-16.124 12.058-.34 1.808-1.666 3.587-3.502 3.671l-19.457-2.09c-1.637-.366-3.473-1.694-2.993-4.207C271.038 7.116 292.386 0 311.476 0c9.77 0 22.535 2.598 30.244 9.997 9.77 9.12 8.839 21.292 8.839 34.536v31.289c0 9.403 3.897 13.526 7.568 18.61 1.27 1.806 1.553 3.98-.085 5.336-4.095 3.417-11.38 9.771-15.39 13.33l-.028-.057M59.16 64.103c0 7.822.198 14.345-3.755 21.292-3.191 5.648-8.246 9.12-13.894 9.12-7.709 0-12.199-5.873-12.199-14.542 0-17.113 15.334-20.22 29.849-20.22v4.35m20.247 48.938c-1.327 1.186-3.247 1.27-4.744.48-6.665-5.535-7.85-8.105-11.522-13.386-11.013 11.24-18.807 14.6-33.096 14.6C13.16 114.735 0 104.315 0 83.446c0-16.294 8.839-27.392 21.405-32.813 10.9-4.801 26.121-5.648 37.756-6.976V41.06c0-4.773.367-10.42-2.429-14.544-2.457-3.699-7.144-5.224-11.267-5.224-7.653 0-14.487 3.925-16.153 12.058-.339 1.808-1.666 3.587-3.473 3.671l-19.485-2.09c-1.638-.366-3.445-1.694-2.994-4.207C7.85 7.116 29.17 0 48.26 0c9.771 0 22.535 2.598 30.244 9.997 9.771 9.12 8.84 21.292 8.84 34.536v31.289c0 9.403 3.896 13.526 7.567 18.61 1.3 1.806 1.582 3.98-.056 5.336-4.095 3.417-11.38 9.771-15.39 13.33l-.057-.057" fillRule="evenodd"/></svg>