<?xml version="1.0" encoding="UTF-8"?>
<svg width="12px" height="12px" viewBox="0 0 17 17" version="1.1" xmlns="http://www.w3.org/2000/svg" xmlns:xlink="http://www.w3.org/1999/xlink">
    <!-- Generator: sketchtool 63.1 (101010) - https://sketch.com -->
    <title>FAA1E44F-8770-4B86-9ACD-61A5818BD89C</title>
    <desc>Created with sketchtool.</desc>
    <g id="Page-1" stroke="none" strokeWidth="1" fill="none" fill-rule="evenodd">
        <g id="Spec" transform="translate(-944.000000, -737.000000)" fill="#ffffff" fill-rule="nonzero">
            <g id="interface" transform="translate(952.502195, 744.711481) rotate(34.000000) translate(-952.502195, -744.711481) translate(946.502195, 735.282909)">
                <path d="M5.89285714,18.8571429 C2.6431536,18.8571429 0,16.2139893 0,12.9642857 L0,4.71428571 C0,4.27980259 0.352046431,3.92861939 0.78566632,3.92861939 C1.21943011,3.92861939 1.57147654,4.27980259 1.57147654,4.71428571 L1.57147654,12.9642857 C1.57147654,15.3466056 3.50981794,17.2856663 5.89285714,17.2856663 C8.27589634,17.2856663 10.2142377,15.3466056 10.2142377,12.9642857 L10.2142377,4.32138061 C10.2142377,2.80500575 8.98070854,1.57147654 7.46433368,1.57147654 C5.94781496,1.57147654 4.71428571,2.80500575 4.71428571,4.32138061 L4.71428571,12.1786194 C4.71428571,12.8283299 5.24300276,13.3571908 5.89285714,13.3571908 C6.54271152,13.3571908 7.07142857,12.8283299 7.07142857,12.1786194 L7.07142857,4.71428571 C7.07142857,4.27980259 7.423475,3.92861939 7.85709489,3.92861939 C8.29085868,3.92861939 8.64290511,4.27980259 8.64290511,4.71428571 L8.64290511,12.1786194 C8.64290511,13.6949943 7.409232,14.9285235 5.89285714,14.9285235 C4.37648228,14.9285235 3.14280918,13.6949943 3.14280918,12.1786194 L3.14280918,4.32138061 C3.14280918,1.93920463 5.08115062,0 7.46433368,0 C9.84737288,0 11.7857143,1.93920463 11.7857143,4.32138061 L11.7857143,12.9642857 C11.7857143,16.2139893 9.14256069,18.8571429 5.89285714,18.8571429 Z" id="Path"></path>
            </g>
        </g>
    </g>
</svg>