<svg width="32" height="32" viewBox="0 0 32 32" fill="none" xmlns="http://www.w3.org/2000/svg">
<path fill-rule="evenodd" clip-rule="evenodd" d="M11.46 21.328C13.196 22 14.736 22.9707 16.08 24.24C17.424 22.9707 18.9593 22 20.686 21.328C22.4127 20.656 24.2373 20.32 26.16 20.32V8C24.2747 8 22.464 8.34067 20.728 9.022C18.992 9.70333 17.4427 10.688 16.08 11.976C14.7173 10.688 13.168 9.70333 11.432 9.022C9.696 8.34067 7.88533 8 6 8V20.32C7.904 20.32 9.724 20.656 11.46 21.328ZM12.7434 21.2835H14.7146V17.3411H12.7434V16.8483C12.7434 15.8873 13.0781 15.0722 13.7475 14.4028C14.4169 13.7334 15.2321 13.3987 16.193 13.3987C17.154 13.3987 17.9692 13.7334 18.6385 14.4028C19.3079 15.0722 19.6426 15.8873 19.6426 16.8483V17.3411H17.6714V21.2835H19.6426C19.9137 21.2835 20.1457 21.187 20.3387 20.994C20.5317 20.801 20.6282 20.5689 20.6282 20.2979V16.8483C20.6282 16.2323 20.5112 15.6553 20.2771 15.1173C20.043 14.5794 19.7268 14.1112 19.3285 13.7128C18.9301 13.3145 18.462 12.9983 17.924 12.7642C17.386 12.5301 16.809 12.4131 16.193 12.4131C15.577 12.4131 15 12.5301 14.4621 12.7642C13.9241 12.9983 13.4559 13.3145 13.0576 13.7128C12.6592 14.1112 12.343 14.5794 12.1089 15.1173C11.8749 15.6553 11.7578 16.2323 11.7578 16.8483V20.2979C11.7578 20.5689 11.8543 20.801 12.0473 20.994C12.2403 21.187 12.4724 21.2835 12.7434 21.2835Z" fill="white" fillOpacity="0.9"/>
</svg>
