<svg width="26" height="18" viewBox="0 0 26 18" fill="none" xmlns="http://www.w3.org/2000/svg">
<path d="M20.1158 7.52598H17.3933C17.1361 7.52598 16.9206 7.43898 16.7467 7.26499C16.5727 7.09097 16.4858 6.87535 16.4858 6.61812C16.4858 6.36088 16.5727 6.14539 16.7467 5.97165C16.9206 5.79792 17.1361 5.71105 17.3933 5.71105H20.1158V2.98853C20.1158 2.73141 20.2028 2.51588 20.3768 2.34194C20.5508 2.16803 20.7664 2.08107 21.0237 2.08107C21.2809 2.08107 21.4964 2.16803 21.6701 2.34194C21.8439 2.51588 21.9307 2.73141 21.9307 2.98853V5.71105H24.6533C24.9104 5.71105 25.1259 5.79805 25.2999 5.97205C25.4738 6.14607 25.5608 6.36169 25.5608 6.61891C25.5608 6.87615 25.4738 7.09164 25.2999 7.26538C25.1259 7.43911 24.9104 7.52598 24.6533 7.52598H21.9307V10.2485C21.9307 10.5056 21.8437 10.7211 21.6697 10.8951C21.4957 11.069 21.2801 11.156 21.0229 11.156C20.7656 11.156 20.5501 11.069 20.3764 10.8951C20.2027 10.7211 20.1158 10.5056 20.1158 10.2485V7.52598ZM9.07448 8.66616C7.90987 8.66616 6.91289 8.2515 6.08353 7.42217C5.25418 6.59281 4.8395 5.59584 4.8395 4.43124C4.8395 3.26662 5.25418 2.26964 6.08353 1.44031C6.91289 0.610964 7.90987 0.196289 9.07448 0.196289C10.2391 0.196289 11.2361 0.610964 12.0654 1.44031C12.8948 2.26964 13.3095 3.26662 13.3095 4.43124C13.3095 5.59584 12.8948 6.59281 12.0654 7.42217C11.2361 8.2515 10.2391 8.66616 9.07448 8.66616ZM-0.000488281 16.0425V15.1908C-0.000488281 14.5983 0.160442 14.0495 0.482303 13.5446C0.804205 13.0397 1.2343 12.6514 1.77259 12.38C2.96864 11.7936 4.17516 11.3538 5.39214 11.0606C6.60912 10.7674 7.83657 10.6208 9.07448 10.6208C10.3124 10.6208 11.5398 10.7674 12.7568 11.0606C13.9738 11.3538 15.1803 11.7936 16.3764 12.38C16.9147 12.6514 17.3447 13.0397 17.6666 13.5446C17.9885 14.0495 18.1495 14.5983 18.1495 15.1908V16.0425C18.1495 16.5529 17.9707 16.9868 17.6131 17.3444C17.2556 17.7019 16.8216 17.8807 16.3112 17.8807H1.83772C1.32736 17.8807 0.893402 17.7019 0.535846 17.3444C0.17829 16.9868 -0.000488281 16.5529 -0.000488281 16.0425ZM1.81446 16.0658H16.3345V15.1908C16.3345 14.9457 16.2635 14.7189 16.1216 14.5102C15.9796 14.3016 15.7869 14.1313 15.5433 13.9995C14.5009 13.486 13.4379 13.097 12.3544 12.8325C11.271 12.568 10.1776 12.4358 9.07448 12.4358C7.97132 12.4358 6.878 12.568 5.79452 12.8325C4.71105 13.097 3.64808 13.486 2.60562 13.9995C2.36207 14.1313 2.16932 14.3016 2.02739 14.5102C1.88543 14.7189 1.81446 14.9457 1.81446 15.1908V16.0658ZM9.07448 6.85123C9.73998 6.85123 10.3097 6.61427 10.7836 6.14036C11.2575 5.66644 11.4945 5.09674 11.4945 4.43124C11.4945 3.76574 11.2575 3.19604 10.7836 2.72212C10.3097 2.24821 9.73998 2.01125 9.07448 2.01125C8.40898 2.01125 7.83927 2.24821 7.36535 2.72212C6.89143 3.19604 6.65447 3.76574 6.65447 4.43124C6.65447 5.09674 6.89143 5.66644 7.36535 6.14036C7.83927 6.61427 8.40898 6.85123 9.07448 6.85123Z" fill="white" fill-opacity="0.9"/>
</svg>
