<svg xmlns="http://www.w3.org/2000/svg" width="11.136" height="10.212" viewBox="0 0 11.136 10.212">
  <path id="_30._Crown" data-name="30. Crown" d="M9.281,9.349H1.857a.928.928,0,0,0,0,1.857H9.281a.928.928,0,1,0,0-1.857Zm.928-6.032a.928.928,0,0,0-.928.928.947.947,0,0,0,.019.19L7.615,5.446,6.194,2.605a.928.928,0,1,0-1.253,0L3.522,5.446,1.837,4.434a.947.947,0,0,0,.019-.19.928.928,0,1,0-.928.928.157.157,0,0,0,.049-.005L1.336,8.42H9.8l.359-3.253c.016,0,.032.005.049.005a.928.928,0,1,0,0-1.857Z" transform="translate(0 -0.993)" fill="#fff"/>
</svg>
