<svg width="25" height="25" viewBox="0 0 25 25" fill="none" xmlns="http://www.w3.org/2000/svg">
<path d="M12.7891 17.8625C12.5891 17.8625 12.4016 17.8313 12.2266 17.7688C12.0516 17.7063 11.8891 17.6 11.7391 17.45L6.33906 12.05C6.03906 11.75 5.89531 11.4 5.90781 11C5.92031 10.6 6.06406 10.25 6.33906 9.95C6.63906 9.65 6.99531 9.49375 7.40781 9.48125C7.82031 9.46875 8.17656 9.6125 8.47656 9.9125L11.2891 12.725V2C11.2891 1.575 11.4328 1.21875 11.7203 0.93125C12.0078 0.64375 12.3641 0.5 12.7891 0.5C13.2141 0.5 13.5703 0.64375 13.8578 0.93125C14.1453 1.21875 14.2891 1.575 14.2891 2V12.725L17.1016 9.9125C17.4016 9.6125 17.7578 9.46875 18.1703 9.48125C18.5828 9.49375 18.9391 9.65 19.2391 9.95C19.5141 10.25 19.6578 10.6 19.6703 11C19.6828 11.4 19.5391 11.75 19.2391 12.05L13.8391 17.45C13.6891 17.6 13.5266 17.7063 13.3516 17.7688C13.1766 17.8313 12.9891 17.8625 12.7891 17.8625ZM3.78906 24.5C2.96406 24.5 2.25781 24.2063 1.67031 23.6188C1.08281 23.0313 0.789062 22.325 0.789062 21.5V18.5C0.789062 18.075 0.932813 17.7188 1.22031 17.4313C1.50781 17.1438 1.86406 17 2.28906 17C2.71406 17 3.07031 17.1438 3.35781 17.4313C3.64531 17.7188 3.78906 18.075 3.78906 18.5V21.5H21.7891V18.5C21.7891 18.075 21.9328 17.7188 22.2203 17.4313C22.5078 17.1438 22.8641 17 23.2891 17C23.7141 17 24.0703 17.1438 24.3578 17.4313C24.6453 17.7188 24.7891 18.075 24.7891 18.5V21.5C24.7891 22.325 24.4953 23.0313 23.9078 23.6188C23.3203 24.2063 22.6141 24.5 21.7891 24.5H3.78906Z" fill="white" fillOpacity="0.9"/>
</svg>
