<svg width="14" height="14" viewBox="0 0 14 14" fill="none" xmlns="http://www.w3.org/2000/svg">
<path d="M6.99984 11.8563C6.86373 11.8563 6.72518 11.832 6.58421 11.7834C6.44324 11.7348 6.31928 11.657 6.21234 11.5501L5.20609 10.6313C4.17553 9.68826 3.24463 8.7525 2.41338 7.82402C1.58213 6.89555 1.1665 5.87229 1.1665 4.75423C1.1665 3.84034 1.47275 3.07715 2.08525 2.46465C2.69775 1.85215 3.46095 1.5459 4.37484 1.5459C4.89011 1.5459 5.37623 1.65527 5.83317 1.87402C6.29011 2.09277 6.679 2.39173 6.99984 2.7709C7.32067 2.39173 7.70956 2.09277 8.1665 1.87402C8.62345 1.65527 9.10956 1.5459 9.62484 1.5459C10.5387 1.5459 11.3019 1.85215 11.9144 2.46465C12.5269 3.07715 12.8332 3.84034 12.8332 4.75423C12.8332 5.87229 12.42 6.89798 11.5936 7.83132C10.7672 8.76465 9.829 9.70284 8.779 10.6459L7.78734 11.5501C7.68039 11.657 7.55643 11.7348 7.41546 11.7834C7.27449 11.832 7.13595 11.8563 6.99984 11.8563ZM6.44567 3.93757C6.16373 3.53895 5.86234 3.23513 5.5415 3.02611C5.22067 2.81708 4.83178 2.71257 4.37484 2.71257C3.7915 2.71257 3.30539 2.90701 2.9165 3.2959C2.52762 3.68479 2.33317 4.1709 2.33317 4.75423C2.33317 5.25979 2.51303 5.79694 2.87275 6.36569C3.23248 6.93444 3.66268 7.48618 4.16338 8.0209C4.66407 8.55562 5.17935 9.05632 5.70921 9.52298C6.23907 9.98965 6.66928 10.3737 6.99984 10.6751C7.33039 10.3737 7.7606 9.98965 8.29046 9.52298C8.82032 9.05632 9.3356 8.55562 9.8363 8.0209C10.337 7.48618 10.7672 6.93444 11.1269 6.36569C11.4866 5.79694 11.6665 5.25979 11.6665 4.75423C11.6665 4.1709 11.4721 3.68479 11.0832 3.2959C10.6943 2.90701 10.2082 2.71257 9.62484 2.71257C9.16789 2.71257 8.779 2.81708 8.45817 3.02611C8.13734 3.23513 7.83595 3.53895 7.554 3.93757C7.48595 4.03479 7.40331 4.1077 7.30609 4.15632C7.20887 4.20493 7.10678 4.22923 6.99984 4.22923C6.89289 4.22923 6.79081 4.20493 6.69359 4.15632C6.59636 4.1077 6.51373 4.03479 6.44567 3.93757Z" fill="white" fill-opacity="0.9"/>
<path d="M6.44567 3.93757C6.16373 3.53895 5.86234 3.23513 5.5415 3.02611C5.22067 2.81708 4.83178 2.71257 4.37484 2.71257C3.7915 2.71257 3.30539 2.90701 2.9165 3.2959C2.52762 3.68479 2.33317 4.1709 2.33317 4.75423C2.33317 5.25979 2.51303 5.79694 2.87275 6.36569C3.23248 6.93444 3.66268 7.48618 4.16338 8.0209C4.66407 8.55562 5.17935 9.05632 5.70921 9.52298C6.23907 9.98965 6.66928 10.3737 6.99984 10.6751C7.33039 10.3737 7.7606 9.98965 8.29046 9.52298C8.82032 9.05632 9.3356 8.55562 9.8363 8.0209C10.337 7.48618 10.7672 6.93444 11.1269 6.36569C11.4866 5.79694 11.6665 5.25979 11.6665 4.75423C11.6665 4.1709 11.4721 3.68479 11.0832 3.2959C10.6943 2.90701 10.2082 2.71257 9.62484 2.71257C9.16789 2.71257 8.779 2.81708 8.45817 3.02611C8.13734 3.23513 7.83595 3.53895 7.554 3.93757C7.48595 4.03479 7.40331 4.1077 7.30609 4.15632C7.20887 4.20493 7.10678 4.22923 6.99984 4.22923C6.89289 4.22923 6.79081 4.20493 6.69359 4.15632C6.59636 4.1077 6.51373 4.03479 6.44567 3.93757Z" fill="white" fill-opacity="0.9"/>
</svg>
