<svg width="32" height="32" viewBox="0 0 32 32" fill="none" xmlns="http://www.w3.org/2000/svg">
                        <path d="M10.2952 21.8085H13.5332V16.844H18.2823V21.8085H21.5203V14.0638L15.9077 10.1915L10.2952 14.0638V21.8085ZM10.2952 23C9.93902 23 9.63411 22.8833 9.38047 22.65C9.12682 22.4167 9 22.1362 9 21.8085V14.0638C9 13.8752 9.04587 13.6965 9.13762 13.5277C9.22936 13.3589 9.35618 13.2199 9.51808 13.1106L15.1306 9.2383C15.25 9.15887 15.3748 9.09929 15.505 9.05957C15.6353 9.01986 15.7709 9 15.912 9C16.0531 9 16.1878 9.01986 16.316 9.05957C16.4443 9.09929 16.5673 9.15887 16.6849 9.2383L22.2974 13.1106C22.4593 13.2199 22.5861 13.3589 22.6779 13.5277C22.7696 13.6965 22.8155 13.8752 22.8155 14.0638V21.8085C22.8155 22.1362 22.6887 22.4167 22.435 22.65C22.1814 22.8833 21.8765 23 21.5203 23H16.9871V18.0355H14.8284V23H10.2952Z" fill="white"/>
                        <path d="M10.2952 21.8085H13.5332V16.844H18.2823V21.8085H21.5203V14.0638L15.9077 10.1915L10.2952 14.0638V21.8085Z" fill="white"/>
                    </svg>