<svg width="32" height="32" viewBox="0 0 32 32" fill="none" xmlns="http://www.w3.org/2000/svg">
<path d="M9.7163 8H11.5071C11.9027 8 12.2234 8.3207 12.2234 8.7163V22.3261C12.2234 22.7217 11.9027 23.0424 11.5071 23.0424H9.7163C9.3207 23.0424 9 22.7217 9 22.3261V8.7163C9 8.3207 9.3207 8 9.7163 8Z" fill="white" fillOpacity="0.9"/>
<path d="M14.0141 8H15.8049C16.2005 8 16.5212 8.3207 16.5212 8.7163V22.3261C16.5212 22.7217 16.2005 23.0424 15.8049 23.0424H14.0141C13.6185 23.0424 13.2978 22.7217 13.2978 22.3261V8.7163C13.2978 8.3207 13.6185 8 14.0141 8Z" fill="white" fillOpacity="0.9"/>
<path d="M17.9325 8.54301L19.6701 8.10979C20.0539 8.01409 20.4427 8.24767 20.5384 8.63153L23.8309 21.837C23.9266 22.2209 23.693 22.6096 23.3092 22.7053L21.5716 23.1386C21.1877 23.2343 20.799 23.0007 20.7033 22.6168L17.4108 9.41133C17.3151 9.02748 17.5487 8.63872 17.9325 8.54301Z" fill="white" fillOpacity="0.9"/>
<path d="M9.7163 8.7H11.5071C11.5106 8.7 11.5122 8.70058 11.5132 8.70099C11.5146 8.7016 11.5166 8.70279 11.5186 8.70477C11.5206 8.70676 11.5218 8.70873 11.5224 8.71017C11.5228 8.71115 11.5234 8.71276 11.5234 8.7163V22.3261C11.5234 22.3296 11.5228 22.3312 11.5224 22.3322C11.5218 22.3336 11.5206 22.3356 11.5186 22.3376C11.5166 22.3396 11.5146 22.3408 11.5132 22.3414C11.5122 22.3418 11.5106 22.3424 11.5071 22.3424H9.7163C9.71276 22.3424 9.71115 22.3418 9.71017 22.3414C9.70873 22.3408 9.70676 22.3396 9.70477 22.3376C9.70279 22.3356 9.7016 22.3336 9.70099 22.3322C9.70058 22.3312 9.7 22.3296 9.7 22.3261V8.7163C9.7 8.71276 9.70058 8.71115 9.70099 8.71017C9.7016 8.70873 9.70279 8.70676 9.70477 8.70478C9.70676 8.70279 9.70873 8.7016 9.71017 8.70099C9.71115 8.70058 9.71276 8.7 9.7163 8.7ZM14.0141 8.7H15.8049C15.8084 8.7 15.81 8.70058 15.811 8.70099C15.8125 8.7016 15.8144 8.70279 15.8164 8.70478C15.8184 8.70676 15.8196 8.70873 15.8202 8.71017C15.8206 8.71115 15.8212 8.71276 15.8212 8.7163V22.3261C15.8212 22.3272 15.8211 22.3281 15.821 22.3289C15.8208 22.3306 15.8205 22.3315 15.8202 22.3322C15.8196 22.3336 15.8184 22.3356 15.8164 22.3376C15.8144 22.3396 15.8125 22.3408 15.811 22.3414C15.81 22.3418 15.8084 22.3424 15.8049 22.3424H14.0141C14.0106 22.3424 14.009 22.3418 14.008 22.3414C14.0065 22.3408 14.0046 22.3396 14.0026 22.3376C14.0006 22.3356 13.9994 22.3336 13.9988 22.3322C13.9984 22.3312 13.9978 22.3296 13.9978 22.3261V8.7163C13.9978 8.71276 13.9984 8.71115 13.9988 8.71017C13.9994 8.70873 14.0006 8.70676 14.0026 8.70478C14.0046 8.70279 14.0065 8.7016 14.008 8.70099C14.009 8.70058 14.0106 8.7 14.0141 8.7ZM18.1019 9.22222L19.8394 8.789C19.8429 8.78814 19.8446 8.78831 19.8456 8.78848C19.8472 8.78872 19.8494 8.7894 19.8518 8.79084C19.8542 8.79229 19.8558 8.79391 19.8567 8.79516C19.8574 8.79601 19.8583 8.79743 19.8592 8.80087L23.1517 22.0064C23.1525 22.0098 23.1524 22.0115 23.1522 22.0125C23.152 22.0141 23.1513 22.0163 23.1498 22.0187C23.1492 22.0197 23.1486 22.0206 23.1479 22.0214C23.1471 22.0224 23.1462 22.0231 23.1455 22.0237C23.1451 22.024 23.1446 22.0243 23.1438 22.0247C23.1429 22.0252 23.1416 22.0257 23.1398 22.0261L21.4022 22.4593C21.4001 22.4599 21.3986 22.46 21.3976 22.46C21.3969 22.46 21.3965 22.4599 21.3961 22.4599C21.3945 22.4596 21.3923 22.4589 21.3899 22.4575C21.3875 22.4561 21.3859 22.4544 21.3849 22.4532C21.3843 22.4523 21.3833 22.4509 21.3825 22.4475L18.09 9.24198C18.0891 9.23855 18.0893 9.23684 18.0895 9.23579C18.0897 9.23425 18.0904 9.23205 18.0918 9.22964C18.0933 9.22724 18.0949 9.22561 18.0961 9.22467C18.097 9.22403 18.0984 9.22308 18.1019 9.22222Z" stroke="white" stroke-opacity="0.9" strokeWidth="1.4"/>
</svg>
