<svg width="37" height="37" viewBox="0 0 37 37" fill="none" xmlns="http://www.w3.org/2000/svg">
<path d="M18.7887 32.0125C18.4387 32.0125 18.0824 31.95 17.7199 31.825C17.3574 31.7 17.0387 31.5 16.7637 31.225L14.1762 28.8625C11.5262 26.4375 9.13245 24.0312 6.99495 21.6438C4.85745 19.2563 3.7887 16.625 3.7887 13.75C3.7887 11.4 4.5762 9.4375 6.1512 7.8625C7.7262 6.2875 9.6887 5.5 12.0387 5.5C13.3637 5.5 14.6137 5.78125 15.7887 6.34375C16.9637 6.90625 17.9637 7.675 18.7887 8.65C19.6137 7.675 20.6137 6.90625 21.7887 6.34375C22.9637 5.78125 24.2137 5.5 25.5387 5.5C27.8887 5.5 29.8512 6.2875 31.4262 7.8625C33.0012 9.4375 33.7887 11.4 33.7887 13.75C33.7887 16.625 32.7262 19.2625 30.6012 21.6625C28.4762 24.0625 26.0637 26.475 23.3637 28.9L20.8137 31.225C20.5387 31.5 20.2199 31.7 19.8574 31.825C19.4949 31.95 19.1387 32.0125 18.7887 32.0125ZM17.3637 11.65C16.6387 10.625 15.8637 9.84375 15.0387 9.30625C14.2137 8.76875 13.2137 8.5 12.0387 8.5C10.5387 8.5 9.2887 9 8.2887 10C7.2887 11 6.7887 12.25 6.7887 13.75C6.7887 15.05 7.2512 16.4313 8.1762 17.8938C9.1012 19.3563 10.2074 20.775 11.4949 22.15C12.7824 23.525 14.1074 24.8125 15.4699 26.0125C16.8324 27.2125 17.9387 28.2 18.7887 28.975C19.6387 28.2 20.7449 27.2125 22.1074 26.0125C23.4699 24.8125 24.7949 23.525 26.0824 22.15C27.3699 20.775 28.4762 19.3563 29.4012 17.8938C30.3262 16.4313 30.7887 15.05 30.7887 13.75C30.7887 12.25 30.2887 11 29.2887 10C28.2887 9 27.0387 8.5 25.5387 8.5C24.3637 8.5 23.3637 8.76875 22.5387 9.30625C21.7137 9.84375 20.9387 10.625 20.2137 11.65C20.0387 11.9 19.8262 12.0875 19.5762 12.2125C19.3262 12.3375 19.0637 12.4 18.7887 12.4C18.5137 12.4 18.2512 12.3375 18.0012 12.2125C17.7512 12.0875 17.5387 11.9 17.3637 11.65Z" fill="white" fillOpacity="0.9"/>
</svg>
