<svg width="37" height="37" viewBox="0 0 37 37" fill="none" xmlns="http://www.w3.org/2000/svg">
<path d="M32 18.5C32 19.325 31.7063 20.0312 31.1188 20.6187C30.5312 21.2063 29.825 21.5 29 21.5C28.175 21.5 27.4688 21.2063 26.8813 20.6187C26.2938 20.0312 26 19.325 26 18.5C26 17.675 26.2938 16.9688 26.8813 16.3812C27.4688 15.7937 28.175 15.5 29 15.5C29.825 15.5 30.5312 15.7937 31.1188 16.3812C31.7063 16.9688 32 17.675 32 18.5ZM23 18.5C23 19.325 22.7063 20.0312 22.1188 20.6187C21.5313 21.2063 20.825 21.5 20 21.5C19.175 21.5 18.4688 21.2063 17.8813 20.6187C17.2938 20.0312 17 19.325 17 18.5C17 17.675 17.2938 16.9688 17.8813 16.3812C18.4688 15.7937 19.175 15.5 20 15.5C20.825 15.5 21.5313 15.7937 22.1188 16.3812C22.7063 16.9688 23 17.675 23 18.5ZM14 18.5C14 19.325 13.7063 20.0312 13.1188 20.6187C12.5312 21.2063 11.825 21.5 11 21.5C10.175 21.5 9.46875 21.2063 8.88125 20.6187C8.29375 20.0312 8 19.325 8 18.5C8 17.675 8.29375 16.9688 8.88125 16.3812C9.46875 15.7937 10.175 15.5 11 15.5C11.825 15.5 12.5312 15.7937 13.1188 16.3812C13.7063 16.9688 14 17.675 14 18.5Z" fill="white" fillOpacity="0.9"/>
</svg>
