<svg width="36" height="36" viewBox="0 0 36 36" fill="none" xmlns="http://www.w3.org/2000/svg">
<path d="M30 18C30 18.825 29.7063 19.5312 29.1188 20.1187C28.5312 20.7063 27.825 21 27 21C26.175 21 25.4688 20.7063 24.8813 20.1187C24.2938 19.5312 24 18.825 24 18C24 17.175 24.2938 16.4688 24.8813 15.8812C25.4688 15.2937 26.175 15 27 15C27.825 15 28.5312 15.2937 29.1188 15.8812C29.7063 16.4688 30 17.175 30 18ZM21 18C21 18.825 20.7063 19.5312 20.1188 20.1187C19.5313 20.7063 18.825 21 18 21C17.175 21 16.4688 20.7063 15.8813 20.1187C15.2938 19.5312 15 18.825 15 18C15 17.175 15.2938 16.4688 15.8813 15.8812C16.4688 15.2937 17.175 15 18 15C18.825 15 19.5313 15.2937 20.1188 15.8812C20.7063 16.4688 21 17.175 21 18ZM12 18C12 18.825 11.7063 19.5312 11.1188 20.1187C10.5312 20.7063 9.825 21 9 21C8.175 21 7.46875 20.7063 6.88125 20.1187C6.29375 19.5312 6 18.825 6 18C6 17.175 6.29375 16.4688 6.88125 15.8812C7.46875 15.2937 8.175 15 9 15C9.825 15 10.5312 15.2937 11.1188 15.8812C11.7063 16.4688 12 17.175 12 18Z" fill="white" fill-opacity="0.6"/>
</svg>
