<!-- <svg
           
            xmlns="http://www.w3.org/2000/svg"
            className="absolute top-3 right-0 h-5 w-5 cursor-pointer stroke-slate-400 peer-disabled:cursor-not-allowed"
            fill="#ffffff"
            viewBox="0 0 24 24"
            stroke="currentColor"
            strokeWidth="1.5"
            aria-labelledby="title-6 description-6"
            role="graphics-symbol"
          >
            <title id="title-6">Check mark icon</title>
            <desc id="description-6">Icon description here</desc>
            <path
              strokeLinecap="round"
              strokeLinejoin="round"
              d="M15 12a3 3 0 11-6 0 3 3 0 016 0z"
            />
            <path
              strokeLinecap="round"
              strokeLinejoin="round"
              d="M2.458 12C3.732 7.943 7.523 5 12 5c4.478 0 8.268 2.943 9.542 7-1.274 4.057-5.064 7-9.542 7-4.477 0-8.268-2.943-9.542-7z"
            />
          </svg> -->

<svg xmlns="http://www.w3.org/2000/svg" version="1.1" xmlns:xlink="http://www.w3.org/1999/xlink" width="512" height="512" x="0" y="0" viewBox="0 0 511.999 511.999" style="enable-background:new 0 0 512 512" xml:space="preserve" class=""><g><path d="M508.745 246.041c-4.574-6.257-113.557-153.206-252.748-153.206S7.818 239.784 3.249 246.035a16.896 16.896 0 0 0 0 19.923c4.569 6.257 113.557 153.206 252.748 153.206s248.174-146.95 252.748-153.201a16.875 16.875 0 0 0 0-19.922zM255.997 385.406c-102.529 0-191.33-97.533-217.617-129.418 26.253-31.913 114.868-129.395 217.617-129.395 102.524 0 191.319 97.516 217.617 129.418-26.253 31.912-114.868 129.395-217.617 129.395z" fill="#ffffff" opacity="1" data-original="#000000" class=""></path><path d="M255.997 154.725c-55.842 0-101.275 45.433-101.275 101.275s45.433 101.275 101.275 101.275S357.272 311.842 357.272 256s-45.433-101.275-101.275-101.275zm0 168.791c-37.23 0-67.516-30.287-67.516-67.516s30.287-67.516 67.516-67.516 67.516 30.287 67.516 67.516-30.286 67.516-67.516 67.516z" fill="#ffffff" opacity="1" data-original="#000000" class=""></path></g></svg>