<svg width="60" height="60" viewBox="0 0 60 60" fill="none" xmlns="http://www.w3.org/2000/svg">
<path d="M26.925 37.9138L37.3143 31.2937C37.8079 30.9813 38.0547 30.5474 38.0547 29.9921C38.0547 29.4368 37.8079 29.0085 37.3143 28.7072L26.925 22.0871C26.4058 21.7858 25.8929 21.7764 25.3865 22.0589C24.8801 22.3415 24.627 22.782 24.627 23.3803V36.6206C24.627 37.2189 24.8801 37.6593 25.3865 37.9419C25.8929 38.2245 26.4058 38.2151 26.925 37.9138ZM30.0233 52.7504C26.8937 52.7504 23.9462 52.1583 21.1808 50.9741C18.4155 49.7899 15.995 48.1606 13.9195 46.086C11.8439 44.0114 10.2137 41.5929 9.02902 38.8306C7.84431 36.0682 7.25195 33.1167 7.25195 29.976C7.25195 26.8352 7.84404 23.8926 9.0282 21.1481C10.2124 18.4036 11.8417 15.9935 13.9163 13.918C15.991 11.8424 18.4094 10.2123 21.1718 9.02755C23.9341 7.84285 26.8856 7.25049 30.0263 7.25049C33.1671 7.25049 36.1097 7.84257 38.8542 9.02674C41.5987 10.2109 44.0088 11.8403 46.0843 13.9149C48.1599 15.9895 49.7901 18.4031 50.9748 21.1557C52.1595 23.9083 52.7518 26.8494 52.7518 29.979C52.7518 33.1087 52.1597 36.0562 50.9756 38.8215C49.7914 41.5869 48.162 44.0073 46.0875 46.0829C44.0128 48.1584 41.5992 49.7886 38.8466 50.9733C36.0941 52.158 33.153 52.7504 30.0233 52.7504ZM30.0019 49.5004C35.4186 49.5004 40.0227 47.6046 43.8144 43.8129C47.6061 40.0213 49.5019 35.4171 49.5019 30.0004C49.5019 24.5838 47.6061 19.9796 43.8144 16.1879C40.0227 12.3963 35.4186 10.5004 30.0019 10.5004C24.5852 10.5004 19.9811 12.3963 16.1894 16.1879C12.3977 19.9796 10.5019 24.5838 10.5019 30.0004C10.5019 35.4171 12.3977 40.0213 16.1894 43.8129C19.9811 47.6046 24.5852 49.5004 30.0019 49.5004Z" fill="white" fillOpacity="0.9"/>
</svg>
