<svg width="16" height="16" viewBox="0 0 16 16" fill="none" xmlns="http://www.w3.org/2000/svg">
<path fill-rule="evenodd" clip-rule="evenodd" d="M8 16C12.4183 16 16 12.4183 16 8C16 3.58172 12.4183 0 8 0C3.58172 0 0 3.58172 0 8C0 12.4183 3.58172 16 8 16ZM6.4964 10.6591C6.69167 10.8544 7.00826 10.8544 7.20353 10.6591L11.7964 6.06607C11.9916 5.87081 11.9889 5.55154 11.7937 5.35628C11.5984 5.161 11.2791 5.15831 11.0838 5.35358L7.20353 9.23407C7.00826 9.42934 6.69167 9.42934 6.4964 9.23407L5.06606 7.80366C4.87079 7.60839 4.5515 7.61108 4.35623 7.80636C4.16098 8.00162 4.15828 8.32089 4.35353 8.51615L6.4964 10.6591Z" fill="#E80D74"/>
</svg>