<svg width="32" height="32" viewBox="0 0 32 32" fill="none" xmlns="http://www.w3.org/2000/svg">
<path d="M15.4 25.6667V17.9433C15.12 17.7722 14.8944 17.5506 14.7233 17.2783C14.5522 17.0061 14.4667 16.6911 14.4667 16.3333C14.4667 15.82 14.6494 15.3806 15.015 15.015C15.3806 14.6494 15.82 14.4667 16.3333 14.4667C16.8467 14.4667 17.2861 14.6494 17.6517 15.015C18.0172 15.3806 18.2 15.82 18.2 16.3333C18.2 16.6911 18.1144 17.01 17.9433 17.29C17.7722 17.57 17.5467 17.7878 17.2667 17.9433V25.6667H15.4ZM9.89333 23.1C9.00667 22.2444 8.30278 21.2372 7.78167 20.0783C7.26056 18.9194 7 17.6711 7 16.3333C7 15.0422 7.245 13.8289 7.735 12.6933C8.225 11.5578 8.89 10.57 9.73 9.73C10.57 8.89 11.5578 8.225 12.6933 7.735C13.8289 7.245 15.0422 7 16.3333 7C17.6244 7 18.8378 7.245 19.9733 7.735C21.1089 8.225 22.0967 8.89 22.9367 9.73C23.7767 10.57 24.4417 11.5578 24.9317 12.6933C25.4217 13.8289 25.6667 15.0422 25.6667 16.3333C25.6667 17.6711 25.4061 18.9233 24.885 20.09C24.3639 21.2567 23.66 22.26 22.7733 23.1L21.4667 21.7933C22.1822 21.1089 22.75 20.2961 23.17 19.355C23.59 18.4139 23.8 17.4067 23.8 16.3333C23.8 14.2489 23.0767 12.4833 21.63 11.0367C20.1833 9.59 18.4178 8.86667 16.3333 8.86667C14.2489 8.86667 12.4833 9.59 11.0367 11.0367C9.59 12.4833 8.86667 14.2489 8.86667 16.3333C8.86667 17.4067 9.07667 18.41 9.49667 19.3433C9.91667 20.2767 10.4922 21.0856 11.2233 21.77L9.89333 23.1ZM12.53 20.4633C11.9856 19.95 11.55 19.3394 11.2233 18.6317C10.8967 17.9239 10.7333 17.1578 10.7333 16.3333C10.7333 14.7778 11.2778 13.4556 12.3667 12.3667C13.4556 11.2778 14.7778 10.7333 16.3333 10.7333C17.8889 10.7333 19.2111 11.2778 20.3 12.3667C21.3889 13.4556 21.9333 14.7778 21.9333 16.3333C21.9333 17.1578 21.77 17.9278 21.4433 18.6433C21.1167 19.3589 20.6811 19.9656 20.1367 20.4633L18.8067 19.1333C19.1956 18.7756 19.5028 18.3556 19.7283 17.8733C19.9539 17.3911 20.0667 16.8778 20.0667 16.3333C20.0667 15.3067 19.7011 14.4278 18.97 13.6967C18.2389 12.9656 17.36 12.6 16.3333 12.6C15.3067 12.6 14.4278 12.9656 13.6967 13.6967C12.9656 14.4278 12.6 15.3067 12.6 16.3333C12.6 16.8933 12.7128 17.4106 12.9383 17.885C13.1639 18.3594 13.4711 18.7756 13.86 19.1333L12.53 20.4633Z" fill="white" fillOpacity="0.9"/>
</svg>
