<svg width="36" height="36" viewBox="0 0 36 36" fill="none" xmlns="http://www.w3.org/2000/svg">
<path d="M25.125 31.5C24.0625 31.5 23.1594 31.1281 22.4156 30.3844C21.6719 29.6406 21.3 28.7375 21.3 27.675C21.3 27.5262 21.3106 27.3722 21.3319 27.2128C21.3531 27.0534 21.385 26.91 21.4275 26.7825L12.4387 21.555C12.0775 21.8737 11.6737 22.1234 11.2275 22.3041C10.7812 22.4847 10.3137 22.575 9.825 22.575C8.7625 22.575 7.85938 22.2031 7.11563 21.4594C6.37187 20.7156 6 19.8125 6 18.75C6 17.6875 6.37187 16.7844 7.11563 16.0406C7.85938 15.2969 8.7625 14.925 9.825 14.925C10.3137 14.925 10.7812 15.0153 11.2275 15.1959C11.6737 15.3766 12.0775 15.6263 12.4387 15.945L21.4275 10.7175C21.385 10.59 21.3531 10.4466 21.3319 10.2872C21.3106 10.1278 21.3 9.97375 21.3 9.825C21.3 8.7625 21.6719 7.85938 22.4156 7.11563C23.1594 6.37187 24.0625 6 25.125 6C26.1875 6 27.0906 6.37187 27.8344 7.11563C28.5781 7.85938 28.95 8.7625 28.95 9.825C28.95 10.8875 28.5781 11.7906 27.8344 12.5344C27.0906 13.2781 26.1875 13.65 25.125 13.65C24.6362 13.65 24.1687 13.5597 23.7225 13.3791C23.2762 13.1984 22.8725 12.9488 22.5112 12.63L13.5225 17.8575C13.565 17.985 13.5969 18.1284 13.6181 18.2878C13.6394 18.4472 13.65 18.6012 13.65 18.75C13.65 18.8987 13.6394 19.0528 13.6181 19.2122C13.5969 19.3716 13.565 19.515 13.5225 19.6425L22.5112 24.87C22.8725 24.5513 23.2762 24.3016 23.7225 24.1209C24.1687 23.9403 24.6362 23.85 25.125 23.85C26.1875 23.85 27.0906 24.2219 27.8344 24.9656C28.5781 25.7094 28.95 26.6125 28.95 27.675C28.95 28.7375 28.5781 29.6406 27.8344 30.3844C27.0906 31.1281 26.1875 31.5 25.125 31.5ZM25.125 11.1C25.4862 11.1 25.7891 10.9778 26.0334 10.7334C26.2778 10.4891 26.4 10.1862 26.4 9.825C26.4 9.46375 26.2778 9.16094 26.0334 8.91656C25.7891 8.67219 25.4862 8.55 25.125 8.55C24.7638 8.55 24.4609 8.67219 24.2166 8.91656C23.9722 9.16094 23.85 9.46375 23.85 9.825C23.85 10.1862 23.9722 10.4891 24.2166 10.7334C24.4609 10.9778 24.7638 11.1 25.125 11.1ZM9.825 20.025C10.1862 20.025 10.4891 19.9028 10.7334 19.6584C10.9778 19.4141 11.1 19.1112 11.1 18.75C11.1 18.3888 10.9778 18.0859 10.7334 17.8416C10.4891 17.5972 10.1862 17.475 9.825 17.475C9.46375 17.475 9.16094 17.5972 8.91656 17.8416C8.67219 18.0859 8.55 18.3888 8.55 18.75C8.55 19.1112 8.67219 19.4141 8.91656 19.6584C9.16094 19.9028 9.46375 20.025 9.825 20.025ZM25.125 28.95C25.4862 28.95 25.7891 28.8278 26.0334 28.5834C26.2778 28.3391 26.4 28.0362 26.4 27.675C26.4 27.3137 26.2778 27.0109 26.0334 26.7666C25.7891 26.5222 25.4862 26.4 25.125 26.4C24.7638 26.4 24.4609 26.5222 24.2166 26.7666C23.9722 27.0109 23.85 27.3137 23.85 27.675C23.85 28.0362 23.9722 28.3391 24.2166 28.5834C24.4609 28.8278 24.7638 28.95 25.125 28.95Z" fill="white" fill-opacity="0.6"/>
</svg>
