<svg xmlns="http://www.w3.org/2000/svg" version="1.1" xmlns:xlink="http://www.w3.org/1999/xlink" width="512" height="512" x="0" y="0" viewBox="0 0 24 24" style="enable-background:new 0 0 512 512" xml:space="preserve" fill-rule="evenodd" class=""><g><path d="M22.75 12c0-.604-.382-1.173-.953-1.673-.291-.256-.627-.501-.912-.752-.169-.149-.334-.281-.385-.446-.055-.18 0-.403.055-.642.087-.38.219-.784.311-1.165.181-.752.166-1.438-.16-1.907-.339-.488-.977-.72-1.739-.774-.375-.026-.783-.019-1.155-.049-.214-.017-.416-.022-.548-.123l-.001-.001c-.137-.104-.205-.31-.29-.528-.141-.361-.26-.771-.401-1.138-.279-.733-.693-1.29-1.239-1.476-.541-.184-1.194.014-1.844.445-.316.209-.64.465-.959.668-.188.12-.359.241-.53.241s-.342-.121-.53-.241c-.319-.203-.643-.459-.959-.668-.65-.431-1.303-.629-1.844-.445-.546.186-.96.743-1.239 1.476-.141.367-.26.777-.401 1.138-.085.218-.153.424-.29.528l-.001.001c-.132.101-.334.106-.548.123-.372.03-.779.023-1.155.049-.762.053-1.4.285-1.739.773-.326.469-.341 1.156-.16 1.908.092.381.224.785.311 1.165.055.239.11.462.055.642-.051.165-.216.297-.385.446-.285.251-.621.496-.912.752-.571.5-.953 1.069-.953 1.673s.382 1.173.953 1.673c.291.255.627.501.912.752.169.149.334.281.385.446.055.18 0 .403-.055.642-.087.38-.219.784-.311 1.165-.181.752-.166 1.438.16 1.907.339.488.977.72 1.739.774.375.026.783.019 1.155.049.214.017.416.022.548.123l.001.001c.137.104.205.31.29.528.141.361.26.771.401 1.138.279.732.693 1.29 1.239 1.476.541.184 1.194-.014 1.844-.445.316-.209.64-.465.959-.668.188-.12.359-.241.53-.241s.342.121.53.241c.319.203.643.459.959.668.65.431 1.303.629 1.844.445.546-.186.96-.744 1.239-1.476.141-.367.26-.777.401-1.138.085-.218.153-.424.29-.528l.001-.001c.132-.101.334-.106.548-.123.372-.03.779-.023 1.155-.049.762-.053 1.4-.285 1.739-.773.326-.47.341-1.156.16-1.908-.092-.381-.224-.785-.311-1.165-.055-.239-.11-.462-.055-.642.051-.165.216-.297.385-.446.285-.251.621-.497.912-.752.571-.5.953-1.069.953-1.673zm-14.28.53 2 2a.749.749 0 0 0 1.06 0l4-4a.749.749 0 1 0-1.06-1.06L11 12.939 9.53 11.47a.749.749 0 1 0-1.06 1.06z" fill="#59d255" opacity="1" data-original="#000000" class=""></path></g></svg>