<svg xmlns="http://www.w3.org/2000/svg" version="1.1" xmlns:xlink="http://www.w3.org/1999/xlink" width="512" height="512" x="0" y="0" viewBox="0 0 100 100" style="enable-background:new 0 0 512 512" xml:space="preserve" class=""><g><path d="M50 2.5C23.808 2.5 2.5 23.808 2.5 50S23.808 97.5 50 97.5 97.5 76.192 97.5 50 76.192 2.5 50 2.5zm28.834 76.114c-3.642-7.49-11.32-12.66-20.206-12.66H41.372c-8.885 0-16.564 5.17-20.206 12.66C13.871 71.263 9.356 61.15 9.356 50 9.356 27.589 27.589 9.356 50 9.356S90.644 27.589 90.644 50c0 11.15-4.515 21.263-11.81 28.614z" fill="#c9c9c9" opacity="1" data-original="#000000" class=""></path><circle cx="50" cy="40.869" r="18.263" fill="#c9c9c9" opacity="1" data-original="#000000" class=""></circle></g></svg>