<svg width="16" height="4" viewBox="0 0 16 4" fill="none" xmlns="http://www.w3.org/2000/svg">
<path d="M2.05115 3.41679C1.66042 3.41679 1.32732 3.27767 1.05186 2.99943C0.776401 2.72118 0.638672 2.38669 0.638672 1.99596C0.638672 1.60523 0.777797 1.27214 1.05605 0.996684C1.3343 0.721225 1.66878 0.583496 2.05951 0.583496C2.45023 0.583496 2.78332 0.722615 3.05878 1.00085C3.33425 1.2791 3.47198 1.61359 3.47198 2.00433C3.47198 2.39505 3.33286 2.72814 3.05461 3.0036C2.77636 3.27906 2.44187 3.41679 2.05115 3.41679ZM7.99559 3.41679C7.60487 3.41679 7.27178 3.27767 6.99632 2.99943C6.72086 2.72118 6.58313 2.38669 6.58313 1.99596C6.58313 1.60523 6.72225 1.27214 7.00048 0.996684C7.27873 0.721225 7.61323 0.583496 8.00396 0.583496C8.39469 0.583496 8.72778 0.722615 9.00323 1.00085C9.27869 1.2791 9.41642 1.61359 9.41642 2.00433C9.41642 2.39505 9.2773 2.72814 8.99907 3.0036C8.72082 3.27906 8.38633 3.41679 7.99559 3.41679ZM13.94 3.41679C13.5493 3.41679 13.2162 3.27767 12.9408 2.99943C12.6653 2.72118 12.5276 2.38669 12.5276 1.99596C12.5276 1.60523 12.6667 1.27214 12.9449 0.996684C13.2232 0.721225 13.5577 0.583496 13.9484 0.583496C14.3391 0.583496 14.6722 0.722615 14.9477 1.00085C15.2232 1.2791 15.3609 1.61359 15.3609 2.00433C15.3609 2.39505 15.2218 2.72814 14.9435 3.0036C14.6653 3.27906 14.3308 3.41679 13.94 3.41679Z" fill="white"/>
</svg>
