<svg width="160" height="160" viewBox="0 0 60 60" fill="none" xmlns="http://www.w3.org/2000/svg">
<path d="M24 42C24.85 42 25.5625 41.7125 26.1375 41.1375C26.7125 40.5625 27 39.85 27 39V21C27 20.15 26.7125 19.4375 26.1375 18.8625C25.5625 18.2875 24.85 18 24 18C23.15 18 22.4375 18.2875 21.8625 18.8625C21.2875 19.4375 21 20.15 21 21V39C21 39.85 21.2875 40.5625 21.8625 41.1375C22.4375 41.7125 23.15 42 24 42ZM36 42C36.85 42 37.5625 41.7125 38.1375 41.1375C38.7125 40.5625 39 39.85 39 39V21C39 20.15 38.7125 19.4375 38.1375 18.8625C37.5625 18.2875 36.85 18 36 18C35.15 18 34.4375 18.2875 33.8625 18.8625C33.2875 19.4375 33 20.15 33 21V39C33 39.85 33.2875 40.5625 33.8625 41.1375C34.4375 41.7125 35.15 42 36 42ZM30 60C25.85 60 21.95 59.2125 18.3 57.6375C14.65 56.0625 11.475 53.925 8.775 51.225C6.075 48.525 3.9375 45.35 2.3625 41.7C0.7875 38.05 0 34.15 0 30C0 25.85 0.7875 21.95 2.3625 18.3C3.9375 14.65 6.075 11.475 8.775 8.775C11.475 6.075 14.65 3.9375 18.3 2.3625C21.95 0.7875 25.85 0 30 0C34.15 0 38.05 0.7875 41.7 2.3625C45.35 3.9375 48.525 6.075 51.225 8.775C53.925 11.475 56.0625 14.65 57.6375 18.3C59.2125 21.95 60 25.85 60 30C60 34.15 59.2125 38.05 57.6375 41.7C56.0625 45.35 53.925 48.525 51.225 51.225C48.525 53.925 45.35 56.0625 41.7 57.6375C38.05 59.2125 34.15 60 30 60Z" fill="#E80D74"/>
<path d="M24 42C24.85 42 25.5625 41.7125 26.1375 41.1375C26.7125 40.5625 27 39.85 27 39V21C27 20.15 26.7125 19.4375 26.1375 18.8625C25.5625 18.2875 24.85 18 24 18C23.15 18 22.4375 18.2875 21.8625 18.8625C21.2875 19.4375 21 20.15 21 21V39C21 39.85 21.2875 40.5625 21.8625 41.1375C22.4375 41.7125 23.15 42 24 42ZM36 42C36.85 42 37.5625 41.7125 38.1375 41.1375C38.7125 40.5625 39 39.85 39 39V21C39 20.15 38.7125 19.4375 38.1375 18.8625C37.5625 18.2875 36.85 18 36 18C35.15 18 34.4375 18.2875 33.8625 18.8625C33.2875 19.4375 33 20.15 33 21V39C33 39.85 33.2875 40.5625 33.8625 41.1375C34.4375 41.7125 35.15 42 36 42Z" fill="#FDE7F1"/>
</svg>
