<svg width="20" height="20" viewBox="0 0 18 20" fill="none" xmlns="http://www.w3.org/2000/svg">
<path d="M3.8498 17L4.6998 17.85C4.8998 18.05 4.99564 18.2833 4.9873 18.55C4.97897 18.8167 4.88314 19.05 4.6998 19.25C4.4998 19.45 4.2623 19.5542 3.9873 19.5625C3.7123 19.5708 3.4748 19.475 3.2748 19.275L0.699805 16.7C0.599805 16.6 0.528971 16.4917 0.487305 16.375C0.445638 16.2583 0.424805 16.1333 0.424805 16C0.424805 15.8667 0.445638 15.7417 0.487305 15.625C0.528971 15.5083 0.599805 15.4 0.699805 15.3L3.2748 12.725C3.4748 12.525 3.7123 12.4292 3.9873 12.4375C4.2623 12.4458 4.4998 12.55 4.6998 12.75C4.88314 12.95 4.97897 13.1833 4.9873 13.45C4.99564 13.7167 4.8998 13.95 4.6998 14.15L3.8498 15H13.9998V12C13.9998 11.7167 14.0956 11.4792 14.2873 11.2875C14.479 11.0958 14.7165 11 14.9998 11C15.2831 11 15.5206 11.0958 15.7123 11.2875C15.904 11.4792 15.9998 11.7167 15.9998 12V15C15.9998 15.55 15.804 16.0208 15.4123 16.4125C15.0206 16.8042 14.5498 17 13.9998 17H3.8498ZM14.1498 5.00001H3.9998V8.00001C3.9998 8.28334 3.90397 8.52084 3.7123 8.71251C3.52064 8.90418 3.28314 9.00001 2.9998 9.00001C2.71647 9.00001 2.47897 8.90418 2.2873 8.71251C2.09564 8.52084 1.9998 8.28334 1.9998 8.00001V5.00001C1.9998 4.45001 2.19564 3.97918 2.5873 3.58751C2.97897 3.19584 3.4498 3.00001 3.9998 3.00001H14.1498L13.2998 2.15001C13.0998 1.95001 13.004 1.71668 13.0123 1.45001C13.0206 1.18335 13.1165 0.950012 13.2998 0.750012C13.4998 0.550012 13.7373 0.445845 14.0123 0.437512C14.2873 0.429178 14.5248 0.525012 14.7248 0.725012L17.2998 3.30001C17.3998 3.40001 17.4706 3.50835 17.5123 3.62501C17.554 3.74168 17.5748 3.86668 17.5748 4.00001C17.5748 4.13335 17.554 4.25835 17.5123 4.37501C17.4706 4.49168 17.3998 4.60001 17.2998 4.70001L14.7248 7.27501C14.5248 7.47501 14.2873 7.57084 14.0123 7.56251C13.7373 7.55418 13.4998 7.45001 13.2998 7.25001C13.1165 7.05001 13.0206 6.81668 13.0123 6.55001C13.004 6.28335 13.0998 6.05001 13.2998 5.85001L14.1498 5.00001Z" fill="white"/>
</svg>
