<svg width="16" height="16" viewBox="0 0 18 20" fill="none" xmlns="http://www.w3.org/2000/svg">
<path d="M14.0008 14.9998V11.9998C14.0008 11.7165 14.0966 11.479 14.2883 11.2873C14.4799 11.0956 14.7174 10.9998 15.0008 10.9998C15.2841 10.9998 15.5216 11.0915 15.7133 11.2748C15.9049 11.4581 16.0008 11.6915 16.0008 11.9748V15.9998C16.0008 16.2831 15.9049 16.5206 15.7133 16.7123C15.5216 16.904 15.2841 16.9998 15.0008 16.9998H3.85078L4.67578 17.8248C4.87578 18.0248 4.97995 18.2665 4.98828 18.5498C4.99661 18.8331 4.90078 19.0748 4.70078 19.2748C4.50078 19.4748 4.26328 19.5748 3.98828 19.5748C3.71328 19.5748 3.48411 19.4831 3.30078 19.2998L0.700781 16.6998C0.517448 16.5165 0.425781 16.2831 0.425781 15.9998C0.425781 15.7165 0.517448 15.4831 0.700781 15.2998L3.27578 12.7248C3.47578 12.5248 3.71328 12.4248 3.98828 12.4248C4.26328 12.4248 4.50078 12.5248 4.70078 12.7248C4.90078 12.9248 5.00078 13.1623 5.00078 13.4373C5.00078 13.7123 4.90078 13.9498 4.70078 14.1498L3.85078 14.9998H14.0008ZM4.00078 4.9998V7.9998C4.00078 8.28314 3.90495 8.52064 3.71328 8.71231C3.52161 8.90397 3.28411 8.9998 3.00078 8.9998C2.71745 8.9998 2.47995 8.90814 2.28828 8.7248C2.09661 8.54147 2.00078 8.30814 2.00078 8.0248V3.9998C2.00078 3.71647 2.09661 3.47897 2.28828 3.2873C2.47995 3.09564 2.71745 2.9998 3.00078 2.9998H14.1508L13.3258 2.1748C13.1258 1.9748 13.0216 1.73314 13.0133 1.4498C13.0049 1.16647 13.1008 0.924805 13.3008 0.724805C13.5008 0.524805 13.7383 0.424805 14.0133 0.424805C14.2883 0.424805 14.5174 0.516471 14.7008 0.699805L17.3008 3.2998C17.4841 3.48314 17.5758 3.71647 17.5758 3.9998C17.5758 4.28314 17.4841 4.51647 17.3008 4.6998L14.7258 7.2748C14.5258 7.4748 14.2883 7.5748 14.0133 7.5748C13.7383 7.5748 13.5008 7.4748 13.3008 7.2748C13.1008 7.0748 13.0008 6.8373 13.0008 6.5623C13.0008 6.2873 13.1008 6.0498 13.3008 5.8498L14.1508 4.9998H4.00078Z" fill="#E80D74" fillOpacity="1.0"/>
</svg>
