<svg width="18" height="16" viewBox="0 0 18 16" fill="none" xmlns="http://www.w3.org/2000/svg">
<path d="M16.332 16C15.9543 16 15.6376 15.8722 15.382 15.6167C15.1265 15.3611 14.9987 15.0444 14.9987 14.6667V1.33333C14.9987 0.955556 15.1265 0.638889 15.382 0.383333C15.6376 0.127778 15.9543 0 16.332 0C16.7098 0 17.0265 0.127778 17.282 0.383333C17.5376 0.638889 17.6654 0.955556 17.6654 1.33333V14.6667C17.6654 15.0444 17.5376 15.3611 17.282 15.6167C17.0265 15.8722 16.7098 16 16.332 16ZM2.3987 14.6333C1.95425 14.9444 1.4987 14.9667 1.03203 14.7C0.565365 14.4333 0.332031 14.0333 0.332031 13.5V2.5C0.332031 1.96667 0.565365 1.57222 1.03203 1.31667C1.4987 1.06111 1.95425 1.07778 2.3987 1.36667L10.6654 6.9C11.0654 7.16667 11.2654 7.53333 11.2654 8C11.2654 8.46667 11.0654 8.83333 10.6654 9.1L2.3987 14.6333Z" fill="white" fillOpacity="0.9"/>
</svg>
