<svg width="14" height="14" viewBox="0 0 18 16" fill="none" xmlns="http://www.w3.org/2000/svg">
<path d="M1.66797 16C2.04575 16 2.36241 15.8722 2.61797 15.6167C2.87352 15.3611 3.0013 15.0444 3.0013 14.6667V1.33333C3.0013 0.955556 2.87352 0.638889 2.61797 0.383333C2.36241 0.127778 2.04575 0 1.66797 0C1.29019 0 0.973524 0.127778 0.717968 0.383333C0.462412 0.638889 0.334635 0.955556 0.334635 1.33333V14.6667C0.334635 15.0444 0.462412 15.3611 0.717968 15.6167C0.973524 15.8722 1.29019 16 1.66797 16ZM15.6013 14.6333C16.0457 14.9444 16.5013 14.9667 16.968 14.7C17.4346 14.4333 17.668 14.0333 17.668 13.5V2.5C17.668 1.96667 17.4346 1.57222 16.968 1.31667C16.5013 1.06111 16.0457 1.07778 15.6013 1.36667L7.33463 6.9C6.93464 7.16667 6.73463 7.53333 6.73463 8C6.73463 8.46667 6.93464 8.83333 7.33463 9.1L15.6013 14.6333Z" fill="white" fillOpacity="0.9"/>
</svg>
