<svg width="18" height="18" viewBox="0 0 18 18" fill="none" xmlns="http://www.w3.org/2000/svg">
<path d="M16.3504 8.97524C16.3504 7.45024 15.9212 6.07316 15.0629 4.84399C14.2046 3.61482 13.0837 2.72107 11.7004 2.16274C11.5087 2.08774 11.3733 1.96274 11.2941 1.78774C11.215 1.61274 11.2212 1.43774 11.3129 1.26274C11.3879 1.07107 11.5233 0.939823 11.7191 0.86899C11.915 0.798157 12.1171 0.80024 12.3254 0.87524C13.9671 1.55024 15.2879 2.61899 16.2879 4.08149C17.2879 5.54399 17.7879 7.17524 17.7879 8.97524C17.7879 10.7836 17.2879 12.419 16.2879 13.8815C15.2879 15.344 13.9671 16.4086 12.3254 17.0752C12.1171 17.1586 11.915 17.1648 11.7191 17.094C11.5233 17.0232 11.3879 16.8919 11.3129 16.7002C11.2212 16.5252 11.215 16.3502 11.2941 16.1752C11.3733 16.0002 11.5087 15.8711 11.7004 15.7877C13.0837 15.2377 14.2046 14.3482 15.0629 13.119C15.9212 11.8898 16.3504 10.5086 16.3504 8.97524ZM4.15039 11.9252H0.937891C0.729557 11.9252 0.556641 11.8565 0.419141 11.719C0.281641 11.5815 0.212891 11.4086 0.212891 11.2002V6.78774C0.212891 6.58774 0.281641 6.41899 0.419141 6.28149C0.556641 6.14399 0.729557 6.07524 0.937891 6.07524H4.15039L7.82539 2.40024C8.05039 2.17524 8.31081 2.12107 8.60664 2.23774C8.90247 2.35441 9.05039 2.57107 9.05039 2.88774V15.1002C9.05039 15.4252 8.90247 15.6461 8.60664 15.7627C8.31081 15.8794 8.05039 15.8252 7.82539 15.6002L4.15039 11.9252ZM13.5129 9.00024C13.5129 9.86691 13.2921 10.6502 12.8504 11.3502C12.4087 12.0502 11.7879 12.5752 10.9879 12.9252C10.8546 12.9836 10.7379 12.9732 10.6379 12.894C10.5379 12.8148 10.4879 12.7127 10.4879 12.5877V5.40024C10.4879 5.27524 10.5379 5.17316 10.6379 5.09399C10.7379 5.01482 10.8546 5.00441 10.9879 5.06274C11.7879 5.41274 12.4087 5.94399 12.8504 6.65649C13.2921 7.36899 13.5129 8.15024 13.5129 9.00024Z" fill="white"/>
</svg>
