<svg width="24" height="35" viewBox="0 0 24 35" fill="none" xmlns="http://www.w3.org/2000/svg">
<path d="M9.42941 27H6.9308V14.5823C6.9308 14.1387 6.9308 13.7327 6.9308 13.3644C6.93917 12.9877 6.95173 12.632 6.96847 12.2972C6.98521 11.954 7.00195 11.6233 7.01869 11.3052C6.80106 11.5312 6.57087 11.7489 6.32813 11.9581C6.09375 12.159 5.82171 12.3892 5.512 12.6487L3.41518 14.3437L2.12193 12.6864L7.33259 8.64341H9.42941V27Z" fill="white" fill-opacity="0.9"/>
<path d="M16.2589 21.4774L12.5022 16.0734H14.8025L17.5246 20.1515L20.2467 16.0734H22.5268L18.76 21.4774L22.7277 27.1426H20.4275L17.5246 22.8133L14.6016 27.1426H12.3214L16.2589 21.4774Z" fill="white" fill-opacity="0.9"/>
</svg>
