<svg width="15" height="10" viewBox="0 0 20 20" fill="none" xmlns="http://www.w3.org/2000/svg">
<path d="M7.9998 13.3998L2.0998 19.2998C1.91647 19.4831 1.68314 19.5748 1.3998 19.5748C1.11647 19.5748 0.883138 19.4831 0.699805 19.2998C0.516471 19.1165 0.424805 18.8831 0.424805 18.5998C0.424805 18.3165 0.516471 18.0831 0.699805 17.8998L6.5998 11.9998H2.9998C2.71647 11.9998 2.47897 11.904 2.2873 11.7123C2.09564 11.5206 1.9998 11.2831 1.9998 10.9998C1.9998 10.7165 2.09564 10.479 2.2873 10.2873C2.47897 10.0956 2.71647 9.9998 2.9998 9.9998H8.9998C9.28314 9.9998 9.52064 10.0956 9.71231 10.2873C9.90397 10.479 9.9998 10.7165 9.9998 10.9998V16.9998C9.9998 17.2831 9.90397 17.5206 9.71231 17.7123C9.52064 17.904 9.28314 17.9998 8.9998 17.9998C8.71647 17.9998 8.47897 17.904 8.2873 17.7123C8.09564 17.5206 7.9998 17.2831 7.9998 16.9998V13.3998ZM13.3998 7.9998H16.9998C17.2831 7.9998 17.5206 8.09564 17.7123 8.2873C17.904 8.47897 17.9998 8.71647 17.9998 8.9998C17.9998 9.28314 17.904 9.52064 17.7123 9.71231C17.5206 9.90397 17.2831 9.9998 16.9998 9.9998H10.9998C10.7165 9.9998 10.479 9.90397 10.2873 9.71231C10.0956 9.52064 9.9998 9.28314 9.9998 8.9998V2.9998C9.9998 2.71647 10.0956 2.47897 10.2873 2.2873C10.479 2.09564 10.7165 1.9998 10.9998 1.9998C11.2831 1.9998 11.5206 2.09564 11.7123 2.2873C11.904 2.47897 11.9998 2.71647 11.9998 2.9998V6.5998L17.8998 0.699805C18.0831 0.516471 18.3165 0.424805 18.5998 0.424805C18.8831 0.424805 19.1165 0.516471 19.2998 0.699805C19.4831 0.883138 19.5748 1.11647 19.5748 1.3998C19.5748 1.68314 19.4831 1.91647 19.2998 2.0998L13.3998 7.9998Z" fill="white"/>
</svg>
