<svg xmlns="http://www.w3.org/2000/svg" width="23.088" height="15.873" viewBox="0 0 23.088 15.873">
  <g id="Group_5927" data-name="Group 5927" transform="translate(-30.412 -523.063)">
    <path id="Path_1460" data-name="Path 1460" d="M23.088,83.743V82.525A2.525,2.525,0,0,0,20.563,80H2.525A2.525,2.525,0,0,0,0,82.525v1.218a.225.225,0,0,0,.225.225H22.863A.225.225,0,0,0,23.088,83.743Z" transform="translate(30.412 443.063)" fill="#e81c25"/>
    <path id="Path_1461" data-name="Path 1461" d="M0,200.225v7.711a2.525,2.525,0,0,0,2.525,2.525H20.563a2.525,2.525,0,0,0,2.525-2.525v-7.711a.226.226,0,0,0-.225-.225H.225A.226.226,0,0,0,0,200.225Zm5.772,5.907a.722.722,0,0,1-.722.721H4.329a.722.722,0,0,1-.722-.721v-.721a.722.722,0,0,1,.722-.722h.722a.722.722,0,0,1,.722.722Z" transform="translate(30.412 328.475)" fill="#9b1e2d" opacity="0.4"/>
  </g>
</svg>
