<svg xmlns="http://www.w3.org/2000/svg" width="13.989" height="18.668" viewBox="0 0 13.989 18.668">
  <g id="icons8-bhim" transform="translate(-9.013 -4)">
    <g id="Group_5919" data-name="Group 5919" transform="translate(12.661 4)">
      <path id="Path_18793" data-name="Path 18793" d="M-7.912,4.267-3.471,13.1a.5.5,0,0,1-.1.59l-9.335,8.83a.5.5,0,0,1-.829-.5L-8.844,4.358A.5.5,0,0,1-7.912,4.267Z" transform="translate(13.758 -3.99)" fill="#4f1d23"/>
    </g>
    <path id="Path_18794" data-name="Path 18794" d="M21.659,10.67,18.1,23.521l6.268-5.926a.975.975,0,0,0,.2-1.139Z" transform="translate(-4.845 -3.557)" opacity="0.05"/>
    <path id="Path_18795" data-name="Path 18795" d="M21.7,11.388l-3.348,12.08,5.987-5.66a.74.74,0,0,0,.152-.865Z" transform="translate(-4.983 -3.94)" opacity="0.07"/>
    <path id="Path_18796" data-name="Path 18796" d="M14.867,4.277,19.3,13.107a.5.5,0,0,1-.1.59l-9.339,8.83a.5.5,0,0,1-.829-.5l4.9-17.66A.5.5,0,0,1,14.867,4.277Z" fill="#e81c25"/>
  </g>
</svg>
