<svg width="519" height="370" viewBox="0 0 519 370" fill="none" xmlns="http://www.w3.org/2000/svg">
<path d="M222.024 229.613L221.068 234.92L220.05 240.622L210.698 292.62H195.414L204.755 240.622L205.784 234.92L206.74 229.613H222.024Z" fill="#EBEBEB"/>
<path d="M219.811 229.613C219 234.882 218.138 240.141 217.265 245.391L214.563 261.159L211.737 276.899L210.283 284.759L208.766 292.62L210.012 284.721L211.311 276.833L214.044 261.074L216.87 245.334C217.795 240.084 218.772 234.844 219.811 229.613Z" fill="#C7C7C7"/>
<path d="M221.067 234.92L220.049 240.622H204.754L205.783 234.92H221.067Z" fill="#C7C7C7"/>
<path d="M297.5 229.613L298.456 234.92L299.474 240.622L308.826 292.62H324.11L314.769 240.622L313.74 234.92L312.784 229.613H297.5Z" fill="#EBEBEB"/>
<path d="M299.766 229.613C300.566 234.882 301.438 240.141 302.311 245.391L305.002 261.159L307.829 276.899L309.294 284.759L310.811 292.62L309.564 284.721L308.265 276.833L305.563 261.074L302.737 245.334C301.771 240.084 300.794 234.844 299.766 229.613Z" fill="#C7C7C7"/>
<path d="M298.457 234.92H313.741L314.77 240.622H299.475L298.457 234.92Z" fill="#C7C7C7"/>
<path d="M221.463 214.985H209.348L210.854 204.73H219.956L221.463 214.985Z" fill="#C7C7C7"/>
<path d="M226.536 199.205C227.621 193.633 223.52 188.319 217.377 187.335C211.234 186.352 205.376 190.071 204.291 195.643C203.207 201.215 207.308 206.53 213.451 207.513C219.593 208.497 225.452 204.777 226.536 199.205Z" fill="#DBDBDB"/>
<path d="M223.766 199.207C224.861 195.018 222.004 190.818 217.386 189.825C212.768 188.833 208.138 191.424 207.044 195.613C205.95 199.802 208.806 204.002 213.424 204.994C218.042 205.987 222.672 203.396 223.766 199.207Z" fill="white"/>
<path d="M222.587 196.955C222.507 196.026 222.217 195.122 221.734 194.3C221.251 193.478 220.586 192.755 219.781 192.176C218.971 191.605 218.041 191.19 217.047 190.955C216.054 190.72 215.019 190.67 214.004 190.81C212.997 190.953 212.034 191.288 211.178 191.791C210.323 192.295 209.593 192.956 209.038 193.731C208.451 194.561 208.067 195.495 207.911 196.47C207.755 197.445 207.831 198.44 208.134 199.386C208.65 201.022 209.856 202.407 211.49 203.241C213.084 204.062 214.955 204.324 216.747 203.976C218.481 203.64 220.036 202.775 221.153 201.526C222.256 200.291 222.893 198.768 222.971 197.181C222.971 197.115 222.971 197.049 222.898 197.049C222.826 197.049 222.826 197.105 222.826 197.181C222.786 197.823 222.65 198.457 222.42 199.066C222.181 199.664 221.864 200.233 221.475 200.762C221.065 201.276 220.591 201.744 220.062 202.157C219.518 202.569 218.921 202.921 218.285 203.203C217.37 203.594 216.376 203.808 215.365 203.831C214.354 203.853 213.349 203.685 212.414 203.335C211.477 202.975 210.636 202.435 209.951 201.751C209.266 201.068 208.752 200.258 208.445 199.377C208.13 198.472 208.034 197.516 208.163 196.574C208.292 195.633 208.643 194.727 209.193 193.92C209.725 193.154 210.431 192.5 211.265 192.003C212.098 191.505 213.039 191.175 214.025 191.036C215.357 190.844 216.721 190.982 217.974 191.434C219.227 191.887 220.321 192.639 221.142 193.609C221.538 194.109 221.859 194.654 222.098 195.23C222.33 195.814 222.483 196.422 222.556 197.04C222.556 197.04 222.587 196.983 222.587 196.955Z" fill="#EBEBEB"/>
<path d="M221.578 196.965C221.504 196.17 221.25 195.397 220.832 194.695C220.413 193.993 219.84 193.376 219.147 192.884C218.452 192.4 217.658 192.045 216.811 191.841C215.963 191.637 215.08 191.588 214.212 191.697C213.344 191.814 212.513 192.096 211.773 192.525C211.034 192.954 210.402 193.519 209.92 194.185C209.408 194.895 209.069 195.696 208.925 196.535C208.782 197.374 208.838 198.231 209.089 199.048C209.304 199.756 209.671 200.418 210.171 200.996C210.67 201.573 211.292 202.055 211.998 202.413C213.386 203.133 215.021 203.355 216.581 203.035C218.085 202.741 219.432 201.985 220.394 200.895C221.347 199.823 221.897 198.502 221.963 197.125C221.963 197.069 221.963 197.012 221.901 197.012C221.838 197.012 221.817 197.059 221.817 197.125C221.733 198.23 221.324 199.294 220.633 200.207C219.943 201.12 218.995 201.849 217.89 202.319C217.103 202.666 216.245 202.857 215.37 202.88C214.496 202.903 213.626 202.756 212.819 202.451C212.007 202.139 211.28 201.671 210.688 201.078C210.096 200.486 209.653 199.783 209.39 199.02C209.121 198.236 209.043 197.409 209.161 196.595C209.279 195.781 209.592 195.001 210.076 194.307C210.534 193.653 211.142 193.097 211.86 192.678C212.578 192.258 213.387 191.984 214.232 191.876C215.363 191.723 216.519 191.845 217.581 192.229C218.643 192.613 219.574 193.246 220.28 194.062C220.619 194.488 220.898 194.95 221.111 195.438C221.306 195.939 221.441 196.457 221.516 196.984L221.578 196.965Z" fill="#EBEBEB"/>
<path d="M220.568 196.973C220.493 196.31 220.27 195.669 219.913 195.087C219.555 194.505 219.071 193.996 218.49 193.589C217.321 192.783 215.852 192.425 214.396 192.59C213.667 192.678 212.967 192.904 212.342 193.255C211.717 193.606 211.181 194.073 210.769 194.626C210.325 195.223 210.027 195.9 209.896 196.611C209.765 197.321 209.804 198.049 210.011 198.745C210.186 199.351 210.494 199.92 210.917 200.415C211.34 200.911 211.87 201.324 212.473 201.629C213.665 202.233 215.06 202.414 216.391 202.138C217.673 201.867 218.812 201.201 219.612 200.253C220.403 199.343 220.868 198.234 220.942 197.077C220.942 197.02 220.942 196.973 220.869 196.973C220.857 196.974 220.845 196.977 220.834 196.983C220.823 196.988 220.813 196.995 220.806 197.004C220.798 197.013 220.792 197.023 220.789 197.034C220.785 197.045 220.784 197.056 220.786 197.067C220.705 197.995 220.357 198.887 219.778 199.654C219.198 200.421 218.406 201.037 217.482 201.44C216.819 201.737 216.095 201.902 215.357 201.925C214.619 201.948 213.884 201.828 213.201 201.572C212.511 201.314 211.893 200.919 211.391 200.417C210.89 199.915 210.518 199.318 210.302 198.669C210.087 198.009 210.031 197.315 210.139 196.633C210.246 195.952 210.514 195.299 210.925 194.72C211.317 194.181 211.833 193.725 212.438 193.384C213.042 193.042 213.721 192.823 214.427 192.741C215.361 192.641 216.307 192.741 217.191 193.033C218.08 193.339 218.86 193.861 219.445 194.541C219.735 194.888 219.972 195.269 220.152 195.672C220.327 196.086 220.449 196.516 220.516 196.954C220.516 196.954 220.578 196.982 220.568 196.973Z" fill="#EBEBEB"/>
<path d="M219.571 196.983C219.418 195.92 218.81 194.955 217.878 194.297C216.945 193.664 215.783 193.375 214.625 193.486C214.036 193.549 213.468 193.723 212.958 193.997C212.448 194.272 212.007 194.64 211.664 195.079C211.292 195.563 211.038 196.114 210.92 196.694C210.801 197.275 210.821 197.871 210.978 198.444C211.116 198.948 211.367 199.421 211.716 199.833C212.064 200.245 212.503 200.587 213.004 200.838C213.992 201.334 215.148 201.478 216.246 201.243C217.291 201.014 218.218 200.469 218.875 199.698C219.5 198.944 219.862 198.038 219.914 197.096C219.916 197.086 219.915 197.076 219.912 197.067C219.909 197.057 219.904 197.048 219.897 197.04C219.891 197.032 219.882 197.025 219.872 197.021C219.863 197.016 219.852 197.013 219.841 197.011C219.841 197.011 219.769 197.011 219.758 197.087C219.696 197.833 219.425 198.553 218.97 199.178C218.516 199.803 217.893 200.313 217.161 200.659C216.626 200.912 216.036 201.057 215.433 201.083C214.83 201.109 214.229 201.016 213.669 200.81C213.103 200.598 212.596 200.273 212.188 199.858C211.779 199.443 211.479 198.95 211.311 198.416C211.144 197.88 211.108 197.317 211.205 196.767C211.302 196.217 211.53 195.692 211.872 195.23C212.193 194.804 212.612 194.447 213.1 194.182C213.588 193.917 214.133 193.75 214.698 193.694C215.437 193.633 216.182 193.72 216.88 193.948C217.582 194.184 218.202 194.584 218.678 195.107C218.906 195.385 219.098 195.685 219.249 196.003C219.397 196.334 219.505 196.678 219.571 197.03V196.983Z" fill="#EBEBEB"/>
<path d="M309.919 214.985H297.793L299.3 204.73H308.412L309.919 214.985Z" fill="#C7C7C7"/>
<path d="M315.206 198.31C316.141 192.708 311.894 187.479 305.718 186.631C299.543 185.782 293.778 189.635 292.843 195.236C291.907 200.838 296.155 206.067 302.33 206.916C308.505 207.764 314.27 203.911 315.206 198.31Z" fill="#DBDBDB"/>
<path d="M312.339 198.58C313.055 194.324 309.832 190.349 305.14 189.7C300.449 189.051 296.065 191.975 295.35 196.23C294.635 200.486 297.858 204.462 302.549 205.111C307.241 205.759 311.624 202.836 312.339 198.58Z" fill="white"/>
<path d="M311.038 196.954C310.957 196.026 310.666 195.123 310.183 194.301C309.7 193.479 309.037 192.755 308.233 192.176C307.422 191.605 306.492 191.19 305.499 190.955C304.506 190.72 303.471 190.671 302.456 190.809C301.449 190.953 300.486 191.288 299.63 191.791C298.774 192.294 298.045 192.955 297.489 193.731C296.898 194.559 296.511 195.493 296.355 196.469C296.199 197.445 296.278 198.44 296.585 199.386C297.097 201.023 298.304 202.409 299.941 203.241C301.535 204.063 303.406 204.324 305.199 203.976C306.933 203.639 308.488 202.775 309.605 201.525C310.707 200.291 311.345 198.768 311.423 197.18C311.423 197.114 311.423 197.048 311.35 197.048C311.277 197.048 311.277 197.105 311.267 197.18C311.226 197.822 311.093 198.455 310.872 199.065C310.634 199.665 310.313 200.235 309.916 200.762C309.104 201.812 308.005 202.653 306.726 203.203C305.814 203.597 304.821 203.812 303.812 203.834C302.802 203.857 301.799 203.687 300.866 203.335C299.927 202.975 299.085 202.435 298.398 201.752C297.711 201.068 297.195 200.258 296.887 199.376C296.573 198.471 296.478 197.515 296.609 196.573C296.74 195.631 297.093 194.726 297.645 193.919C298.177 193.153 298.883 192.5 299.716 192.002C300.55 191.505 301.491 191.175 302.477 191.035C303.809 190.843 305.173 190.981 306.425 191.434C307.678 191.887 308.773 192.638 309.594 193.608C309.985 194.111 310.307 194.655 310.55 195.229C310.778 195.814 310.928 196.422 310.997 197.039C310.997 197.039 311.038 196.982 311.038 196.954Z" fill="#EBEBEB"/>
<path d="M310.03 196.965C309.951 196.171 309.695 195.4 309.277 194.698C308.859 193.997 308.288 193.379 307.599 192.884C306.904 192.4 306.11 192.045 305.263 191.841C304.415 191.637 303.532 191.588 302.663 191.697C301.794 191.813 300.961 192.095 300.219 192.523C299.478 192.952 298.845 193.518 298.362 194.185C297.849 194.895 297.51 195.696 297.367 196.535C297.223 197.374 297.279 198.231 297.531 199.048C297.745 199.756 298.113 200.418 298.612 200.996C299.112 201.573 299.733 202.055 300.44 202.413C301.828 203.131 303.463 203.353 305.022 203.035C306.53 202.743 307.881 201.987 308.846 200.895C309.794 199.821 310.344 198.501 310.415 197.125C310.415 197.069 310.415 197.012 310.342 197.012C310.269 197.012 310.269 197.059 310.259 197.125C310.176 198.229 309.769 199.293 309.08 200.206C308.392 201.119 307.446 201.849 306.342 202.319C305.555 202.666 304.696 202.857 303.822 202.88C302.948 202.903 302.078 202.756 301.271 202.451C300.457 202.141 299.727 201.673 299.133 201.08C298.539 200.488 298.095 199.785 297.832 199.02C297.566 198.236 297.489 197.409 297.608 196.596C297.726 195.782 298.036 195.002 298.518 194.307C298.977 193.655 299.586 193.1 300.304 192.681C301.021 192.261 301.829 191.987 302.674 191.876C303.808 191.719 304.968 191.839 306.035 192.223C307.101 192.607 308.036 193.242 308.742 194.062C309.085 194.486 309.364 194.948 309.573 195.438C309.777 195.937 309.913 196.456 309.978 196.984C309.988 196.984 309.997 196.983 310.006 196.979C310.015 196.976 310.023 196.971 310.03 196.965Z" fill="#EBEBEB"/>
<path d="M309.023 196.974C308.944 196.313 308.719 195.672 308.362 195.091C308.005 194.51 307.523 194 306.945 193.59C305.776 192.786 304.308 192.428 302.852 192.591C302.126 192.681 301.43 192.909 300.809 193.26C300.188 193.611 299.655 194.077 299.246 194.627C298.802 195.225 298.504 195.901 298.371 196.611C298.239 197.322 298.275 198.049 298.477 198.746C298.657 199.352 298.968 199.919 299.393 200.414C299.818 200.909 300.347 201.323 300.95 201.63C302.138 202.233 303.53 202.415 304.857 202.139C306.142 201.868 307.284 201.202 308.088 200.254C308.882 199.346 309.344 198.235 309.408 197.078C309.408 197.021 309.408 196.974 309.346 196.974C309.333 196.975 309.321 196.979 309.31 196.984C309.3 196.989 309.29 196.997 309.282 197.005C309.275 197.014 309.269 197.024 309.265 197.035C309.262 197.046 309.261 197.057 309.262 197.068C309.18 197.995 308.831 198.886 308.252 199.654C307.672 200.421 306.881 201.037 305.958 201.441C305.296 201.738 304.572 201.904 303.834 201.926C303.095 201.949 302.36 201.829 301.677 201.573C300.987 201.315 300.369 200.92 299.868 200.418C299.366 199.916 298.994 199.319 298.778 198.671C298.563 198.01 298.508 197.316 298.615 196.634C298.723 195.953 298.991 195.3 299.402 194.721C299.791 194.182 300.305 193.725 300.907 193.383C301.51 193.042 302.188 192.823 302.893 192.742C303.83 192.642 304.78 192.742 305.667 193.034C306.557 193.34 307.337 193.862 307.922 194.542C308.211 194.89 308.449 195.27 308.629 195.673C308.794 196.089 308.915 196.519 308.992 196.955C309 196.964 309.011 196.971 309.023 196.974Z" fill="#EBEBEB"/>
<path d="M308.014 196.983C307.942 196.457 307.757 195.948 307.468 195.487C307.179 195.026 306.792 194.622 306.331 194.297C305.398 193.665 304.236 193.375 303.078 193.486C302.488 193.544 301.918 193.717 301.407 193.991C300.897 194.266 300.457 194.637 300.117 195.079C299.745 195.563 299.491 196.114 299.373 196.694C299.255 197.274 299.275 197.871 299.431 198.444C299.569 198.948 299.82 199.421 300.169 199.833C300.518 200.245 300.956 200.587 301.458 200.838C302.442 201.333 303.594 201.477 304.689 201.243C305.735 201.011 306.665 200.467 307.328 199.697C307.954 198.944 308.316 198.038 308.367 197.096C308.37 197.087 308.371 197.077 308.37 197.067C308.368 197.057 308.364 197.048 308.358 197.04C308.352 197.032 308.344 197.025 308.335 197.02C308.326 197.015 308.316 197.012 308.305 197.011C308.283 197.011 308.262 197.019 308.246 197.033C308.23 197.047 308.222 197.066 308.222 197.086C308.146 197.837 307.859 198.557 307.387 199.178C306.916 199.798 306.277 200.299 305.531 200.63C304.997 200.882 304.409 201.027 303.808 201.053C303.208 201.079 302.607 200.986 302.05 200.781C301.483 200.569 300.976 200.244 300.568 199.829C300.159 199.415 299.86 198.922 299.691 198.387C299.525 197.851 299.489 197.288 299.586 196.738C299.682 196.188 299.91 195.664 300.252 195.201C300.573 194.775 300.992 194.417 301.48 194.152C301.968 193.887 302.513 193.721 303.078 193.665C303.814 193.605 304.556 193.691 305.25 193.92C305.953 194.152 306.574 194.553 307.048 195.079C307.283 195.354 307.478 195.654 307.629 195.974C307.777 196.305 307.885 196.65 307.952 197.002C307.952 197.002 308.024 196.992 308.014 196.983Z" fill="#EBEBEB"/>
<path d="M335.924 209.764H183.59V236.191H335.924V209.764Z" fill="#DBDBDB"/>
<path d="M214.907 209.764L203.851 236.191H184.172L195.227 209.764H214.907Z" fill="#EBEBEB"/>
<path d="M255.231 209.764L244.176 236.191H224.496L235.552 209.764H255.231Z" fill="#EBEBEB"/>
<path d="M295.545 209.764L284.5 236.191H264.82L275.876 209.764H295.545Z" fill="#EBEBEB"/>
<path d="M335.883 209.764L324.828 236.191H305.148L316.204 209.764H335.883Z" fill="#EBEBEB"/>
<path d="M332.848 260.629H186.676V277.358H332.848V260.629Z" fill="#DBDBDB"/>
<path d="M216.716 260.629L206.118 277.349H187.238L197.847 260.629H216.716Z" fill="#EBEBEB"/>
<path d="M255.42 260.629L244.812 277.349H225.922L236.531 260.629H255.42Z" fill="#EBEBEB"/>
<path d="M294.101 260.629L283.493 277.349H264.613L275.222 260.629H294.101Z" fill="#EBEBEB"/>
<path d="M332.797 260.629L322.188 277.349H303.309L313.917 260.629H332.797Z" fill="#EBEBEB"/>
<path d="M486.068 83.8916H368.469C368.469 83.8916 380.127 55.0039 398.071 55.0039C416.015 55.0039 421.637 74.9378 421.637 74.9378C421.637 74.9378 433.741 64.1085 443.696 64.1085C453.65 64.1085 462.284 78.4251 462.284 78.4251C462.284 78.4251 476.342 70.7248 486.068 83.8916Z" fill="white" fillOpacity="0.6"/>
<path d="M182.955 16.1356H128C128 16.1356 140.271 0 149.955 0C159.639 0 162.486 10.754 162.486 10.754C162.486 10.754 169.312 5.73984 175.64 6.63522C181.968 7.5306 182.955 16.1356 182.955 16.1356Z" fill="white" fillOpacity="0.6"/>
<path d="M467.342 132.337H412.387C412.387 132.337 424.668 116.201 434.342 116.201C444.015 116.201 446.873 126.955 446.873 126.955C446.873 126.955 453.699 121.932 460.027 122.836C466.355 123.741 467.342 132.337 467.342 132.337Z" fill="white" fillOpacity="0.6"/>
<path d="M291.053 64.2558H184C184 64.2558 198.661 34.5669 214.34 32.7102C230.019 30.8535 237.521 54.7648 237.521 54.7648C237.521 54.7648 247.641 46.2822 255.59 46.2822C263.539 46.2822 269.68 57.4132 269.68 57.4132C269.68 57.4132 285.618 49.8166 291.053 64.2558Z" fill="white" fillOpacity="0.6"/>
<path d="M37.3125 292.856L92.4026 292.63L147.503 292.545L257.683 292.385L367.874 292.545L422.964 292.63L478.054 292.856L422.964 293.082L367.874 293.167L257.683 293.327L147.503 293.167L92.4026 293.082L37.3125 292.856Z" fill="#263238"/>
<path d="M259.761 367.133C380.321 367.133 478.054 356.798 478.054 344.051C478.054 331.303 380.321 320.969 259.761 320.969C139.202 320.969 41.4688 331.303 41.4688 344.051C41.4688 356.798 139.202 367.133 259.761 367.133Z" fill="white" fillOpacity="0.1"/>
<path d="M288.302 348.36C290.463 349.019 352.328 349.217 354.697 347.869C355.601 347.361 356.152 339.189 356.515 329.302C356.599 327.163 356.661 324.957 356.723 322.705L361.731 292.78L320.377 292.535L316.471 322.478L316.627 329.076C316.627 329.076 292.905 338.614 290.484 340.339C288.063 342.064 286.151 347.69 288.302 348.36Z" fill="#EB9481"/>
<path d="M288.302 348.358C290.463 349.018 352.328 349.216 354.697 347.868C355.788 347.246 356.391 335.314 356.723 322.713L316.471 322.486L316.627 329.084C316.627 329.084 292.905 338.622 290.484 340.347C288.063 342.072 286.151 347.689 288.302 348.358Z" fill="white"/>
<path d="M288.302 348.359C290.463 349.019 352.328 349.217 354.697 347.869C355.601 347.36 356.152 339.189 356.515 329.302L316.627 329.066C316.627 329.066 292.905 338.605 290.484 340.329C288.063 342.054 286.151 347.69 288.302 348.359Z" fill="#F73859"/>
<path d="M289.208 346.116C299.598 345.918 341.43 346.003 351.696 346.521C351.779 346.521 351.779 346.578 351.696 346.587C341.42 346.983 299.567 346.587 289.198 346.267C288.979 346.257 288.99 346.116 289.208 346.116Z" fill="#263238"/>
<path d="M294.477 338.321C295.637 338.292 296.791 338.483 297.865 338.882C298.938 339.281 299.908 339.88 300.711 340.64C302.162 341.987 302.988 343.789 303.018 345.673C303.018 345.729 302.893 345.729 302.883 345.673C302.544 343.815 301.55 342.107 300.052 340.804C298.554 339.501 296.631 338.673 294.57 338.444C294.552 338.455 294.53 338.459 294.509 338.456C294.487 338.452 294.468 338.441 294.456 338.425C294.444 338.409 294.439 338.389 294.443 338.369C294.447 338.35 294.459 338.333 294.477 338.321Z" fill="#263238"/>
<path d="M312.607 329.988C316.763 329.988 321.564 331.298 324.13 334.38C324.234 334.503 324.047 334.625 323.922 334.569C320.284 332.832 316.453 331.452 312.493 330.45C312.425 330.436 312.367 330.399 312.33 330.346C312.293 330.293 312.28 330.228 312.295 330.167C312.311 330.106 312.352 330.053 312.41 330.019C312.469 329.986 312.54 329.974 312.607 329.988Z" fill="#263238"/>
<path d="M309.394 331.112C313.551 331.112 318.351 332.422 320.917 335.513C321.021 335.626 320.834 335.758 320.71 335.692C317.074 333.953 313.242 332.575 309.28 331.583C309.221 331.561 309.173 331.521 309.144 331.47C309.115 331.419 309.106 331.36 309.12 331.304C309.133 331.248 309.168 331.197 309.218 331.162C309.269 331.127 309.331 331.109 309.394 331.112Z" fill="#263238"/>
<path d="M306.185 332.242C310.341 332.195 315.142 333.543 317.719 336.634C317.812 336.747 317.625 336.879 317.5 336.823C313.867 335.077 310.035 333.695 306.071 332.704C306.003 332.69 305.945 332.653 305.908 332.6C305.871 332.547 305.858 332.482 305.874 332.421C305.889 332.36 305.93 332.307 305.989 332.273C306.047 332.239 306.118 332.228 306.185 332.242Z" fill="#263238"/>
<path d="M302.974 333.363C307.13 333.363 311.941 334.664 314.508 337.755C314.601 337.868 314.414 338 314.289 337.944C310.656 336.198 306.824 334.817 302.86 333.825C302.792 333.811 302.734 333.774 302.697 333.721C302.66 333.668 302.647 333.603 302.663 333.542C302.678 333.481 302.719 333.428 302.778 333.394C302.836 333.361 302.907 333.349 302.974 333.363Z" fill="#263238"/>
<path d="M349.12 337.576C353.785 337.576 353.744 344.174 349.12 344.174C344.496 344.174 344.424 337.548 349.12 337.576Z" fill="#263238"/>
<path d="M308.471 325.445C310.694 328.075 314.102 329.743 317.053 331.6C317.123 331.635 317.2 331.656 317.28 331.659C317.359 331.663 317.438 331.649 317.511 331.62C317.584 331.59 317.648 331.546 317.699 331.49C317.749 331.434 317.784 331.368 317.801 331.298C317.818 331.301 317.834 331.301 317.85 331.297C317.866 331.293 317.881 331.285 317.893 331.275C317.905 331.265 317.915 331.252 317.92 331.238C317.926 331.224 317.928 331.209 317.926 331.194C317.637 327.739 316.351 324.414 314.196 321.552C312.908 319.903 310.268 318.357 308.159 319.931C306.05 321.505 307.162 323.918 308.471 325.445ZM308.284 322.325C308.72 318.235 312.783 321.383 313.676 322.636C314.239 323.454 314.743 324.304 315.183 325.181C316.058 327.008 316.831 328.873 317.5 330.77C316.118 329.771 314.643 328.885 313.219 327.943C311.526 326.821 308.055 324.587 308.284 322.325Z" fill="#263238"/>
<path d="M332.683 328.84C332.371 326.38 329.275 325.843 327.093 326.21C323.355 326.921 319.887 328.507 317.035 330.81C317.02 330.818 317.007 330.83 316.999 330.844C316.99 330.858 316.986 330.874 316.986 330.89C316.986 330.906 316.99 330.921 316.999 330.936C317.007 330.95 317.02 330.961 317.035 330.97C316.991 331.031 316.964 331.1 316.956 331.172C316.948 331.244 316.959 331.317 316.988 331.385C317.018 331.452 317.065 331.512 317.125 331.56C317.186 331.607 317.258 331.641 317.336 331.658C320.89 332.167 324.609 333.119 328.236 332.6C330.355 332.336 332.984 331.168 332.683 328.84ZM322.905 331.432C321.149 331.224 319.425 330.932 317.71 330.781C319.674 329.886 321.586 328.896 323.643 328.208C324.632 327.852 325.645 327.556 326.677 327.322C328.277 326.992 333.618 327.266 330.833 330.489C329.202 332.261 324.994 331.667 322.905 331.432Z" fill="#263238"/>
<path d="M422.516 154.42C422.516 154.42 374.481 228.538 373.193 233.741C371.218 241.743 360.724 320.706 360.724 320.706L310.746 319.895C310.746 319.895 319.36 250.263 327.516 227.332C333.397 210.81 375.78 156.013 375.78 156.013L422.516 154.42Z" fill="#F73859"/>
<path d="M315.308 312.941C322.488 312.894 347.924 312.639 357.473 313.44C357.492 313.44 357.51 313.447 357.524 313.46C357.538 313.472 357.545 313.489 357.545 313.506C357.545 313.524 357.538 313.541 357.524 313.553C357.51 313.565 357.492 313.572 357.473 313.572C354.189 313.996 322.488 313.327 315.308 313.12C315.293 313.125 315.276 313.126 315.26 313.123C315.244 313.121 315.228 313.115 315.215 313.107C315.202 313.098 315.191 313.086 315.183 313.073C315.176 313.06 315.172 313.045 315.172 313.03C315.172 313.015 315.176 313.001 315.183 312.987C315.191 312.974 315.202 312.963 315.215 312.954C315.228 312.945 315.244 312.939 315.26 312.937C315.276 312.935 315.293 312.936 315.308 312.941Z" fill="#263238"/>
<path d="M414.318 161.225C411.201 165.702 407.845 170.084 404.624 174.523C401.403 178.963 398.203 183.411 395.034 187.888C388.709 196.823 382.53 205.84 376.497 214.938C373.572 219.125 371.065 223.541 369.006 228.133C367.13 232.748 365.721 237.508 364.797 242.355C363.81 247.228 363.166 252.138 362.563 257.049C361.912 262.277 361.268 267.504 360.631 272.732C359.315 283.414 357.999 294.114 356.682 304.834C356.516 306.144 356.36 307.463 356.215 308.773C356.215 308.971 356.568 309.009 356.599 308.773C358.064 298.142 359.29 287.482 360.631 276.832L362.626 260.979C363.239 256.05 363.831 251.121 364.704 246.21C365.484 241.381 366.661 236.611 368.226 231.941C369.939 227.102 372.243 222.451 375.094 218.076C380.882 209.019 387.012 200.112 393.142 191.234C399.273 182.356 405.559 173.326 412.032 164.533C412.822 163.449 413.632 162.365 414.464 161.3C414.578 161.215 414.381 161.14 414.318 161.225Z" fill="#263238"/>
<path d="M380.05 354.588C382.325 354.72 443.712 340.045 445.624 338.198C445.708 338.086 445.758 337.956 445.769 337.821C446.008 335.993 442.87 329.159 440.667 320.404C440.532 319.848 439.379 317.19 437.758 313.599C433.301 303.75 425.352 286.822 425.352 286.822L385.276 296.153L400.03 323.061L402.025 329.386C402.025 329.386 381.754 344.098 379.904 346.351C378.055 348.603 377.785 354.437 380.05 354.588Z" fill="#EB9481"/>
<path d="M380.052 354.589C382.328 354.721 443.715 340.046 445.626 338.199C445.711 338.087 445.761 337.957 445.772 337.822C446.011 335.993 442.873 329.16 440.67 320.404C440.535 319.848 439.382 317.191 437.761 313.6L400.044 323.025L402.039 329.349C402.039 329.349 381.767 344.061 379.917 346.314C378.068 348.566 377.787 354.438 380.052 354.589Z" fill="white"/>
<path d="M380.052 354.579C382.328 354.73 443.715 340.046 445.626 338.199C446.354 337.501 444.764 329.971 440.67 320.404L402.039 329.396C402.039 329.396 381.767 344.089 379.917 346.361C378.068 348.632 377.787 354.438 380.052 354.579Z" fill="#F73859"/>
<path d="M380.29 352.204C390.265 349.621 430.767 340.046 440.845 338.17C440.929 338.17 440.939 338.17 440.845 338.236C431.026 340.988 390.441 350.272 380.321 352.373C380.124 352.402 380.082 352.26 380.29 352.204Z" fill="#263238"/>
<path d="M383.208 343.458C384.316 343.168 385.479 343.09 386.622 343.229C387.765 343.369 388.863 343.723 389.847 344.268C391.626 345.238 392.928 346.79 393.484 348.604C393.484 348.66 393.38 348.689 393.359 348.604C392.504 346.88 391.055 345.454 389.23 344.541C387.405 343.629 385.303 343.278 383.239 343.543C383.233 343.551 383.224 343.558 383.213 343.563C383.202 343.567 383.191 343.569 383.179 343.567C383.167 343.566 383.157 343.561 383.148 343.555C383.139 343.548 383.132 343.539 383.128 343.529C383.125 343.519 383.124 343.508 383.127 343.498C383.129 343.488 383.135 343.478 383.144 343.471C383.152 343.463 383.162 343.458 383.174 343.456C383.185 343.454 383.197 343.454 383.208 343.458Z" fill="#263238"/>
<path d="M398.402 331.214C402.402 330.215 407.431 330.404 410.777 332.798C410.912 332.892 410.777 333.062 410.631 333.033C406.641 332.183 402.562 331.725 398.464 331.667C398.407 331.66 398.354 331.636 398.314 331.599C398.273 331.562 398.247 331.514 398.24 331.462C398.233 331.411 398.245 331.358 398.274 331.313C398.304 331.269 398.348 331.234 398.402 331.214Z" fill="#263238"/>
<path d="M395.615 333.042C399.615 332.043 404.644 332.232 407.99 334.626C408.125 334.72 407.99 334.89 407.834 334.862C403.842 334.03 399.763 333.59 395.667 333.551C395.593 333.558 395.519 333.537 395.461 333.494C395.404 333.45 395.367 333.388 395.361 333.321C395.354 333.253 395.377 333.186 395.424 333.134C395.472 333.082 395.541 333.049 395.615 333.042Z" fill="#263238"/>
<path d="M392.82 334.873C396.831 333.874 401.85 334.062 405.206 336.456C405.331 336.55 405.206 336.71 405.05 336.692C401.06 335.844 396.981 335.389 392.883 335.334C392.821 335.332 392.762 335.31 392.717 335.272C392.671 335.235 392.642 335.183 392.635 335.128C392.627 335.072 392.642 335.016 392.676 334.969C392.71 334.922 392.761 334.888 392.82 334.873Z" fill="#263238"/>
<path d="M390.035 336.69C394.035 335.7 399.064 335.889 402.41 338.283C402.545 338.377 402.41 338.537 402.265 338.509C398.273 337.67 394.194 337.218 390.097 337.161C390.029 337.169 389.959 337.151 389.905 337.112C389.85 337.073 389.815 337.016 389.807 336.954C389.798 336.891 389.818 336.828 389.861 336.779C389.903 336.729 389.966 336.697 390.035 336.69Z" fill="#263238"/>
<path d="M435.817 330.131C440.327 329.076 442.135 335.438 437.615 336.484C433.095 337.53 431.297 331.178 435.817 330.131Z" fill="#263238"/>
<path d="M393.122 327.775C396.021 329.802 399.782 330.603 403.149 331.743C403.226 331.762 403.307 331.765 403.385 331.751C403.464 331.736 403.537 331.705 403.6 331.66C403.663 331.615 403.713 331.558 403.746 331.492C403.78 331.426 403.796 331.354 403.793 331.281C403.81 331.281 403.827 331.277 403.842 331.269C403.857 331.262 403.87 331.251 403.879 331.238C403.888 331.225 403.894 331.21 403.895 331.195C403.896 331.179 403.893 331.164 403.887 331.149C402.637 327.868 400.459 324.943 397.569 322.667C395.865 321.376 392.873 320.48 391.273 322.497C389.673 324.514 391.439 326.597 393.122 327.775ZM392.083 324.806C391.356 320.744 396.167 322.865 397.382 323.864C398.159 324.521 398.885 325.227 399.554 325.975C400.918 327.534 402.191 329.158 403.367 330.838C401.746 330.197 400.073 329.689 398.432 329.095C396.457 328.397 392.478 327.04 392.073 324.806H392.083Z" fill="#263238"/>
<path d="M417.488 325.466C416.501 323.157 413.332 323.354 411.348 324.222C407.928 325.765 405.018 328.1 402.911 330.989C402.9 331.001 402.892 331.015 402.889 331.031C402.885 331.046 402.886 331.062 402.891 331.077C402.897 331.092 402.906 331.105 402.918 331.116C402.931 331.127 402.946 331.135 402.963 331.14C402.94 331.209 402.935 331.281 402.949 331.352C402.963 331.423 402.995 331.49 403.042 331.548C403.09 331.605 403.151 331.652 403.222 331.684C403.293 331.717 403.372 331.733 403.451 331.733C407.036 331.403 410.901 331.46 414.257 330.15C416.221 329.387 418.434 327.643 417.488 325.466ZM408.76 330.235C407.015 330.433 405.259 330.555 403.565 330.81C405.165 329.449 406.84 328.162 408.584 326.955C409.439 326.384 410.334 325.865 411.264 325.4C412.719 324.702 417.966 323.741 416.138 327.501C415.088 329.584 410.859 329.999 408.76 330.235Z" fill="#263238"/>
<path d="M397.287 321.3L442.194 310.612C442.194 310.612 399.199 233.864 399.594 228.567C399.905 223.854 431.087 182.686 432.843 174.976C435.659 162.356 428.884 151.084 422.318 144.109L375.872 155.985C375.872 155.985 379.571 163.27 386.367 167.87C386.367 167.87 357.18 212.073 356.432 226.625C355.684 241.178 397.287 321.3 397.287 321.3Z" fill="#F73859"/>
<path d="M396.439 313.76C402.943 312.073 401.052 312.478 407.587 310.847C410.788 310.056 431.808 304.844 434.925 304.57C434.997 304.57 435.029 304.665 434.925 304.693C432.057 305.862 410.944 310.744 407.733 311.479C401.166 312.987 403.026 312.487 396.439 313.939C396.366 313.948 396.314 313.76 396.439 313.76Z" fill="#263238"/>
<path d="M379.166 166.201C383.616 167.699 387.916 169.541 392.019 171.705C392.052 171.72 392.078 171.747 392.089 171.779C392.101 171.81 392.098 171.845 392.082 171.875C392.065 171.905 392.036 171.928 392.001 171.938C391.966 171.949 391.928 171.947 391.895 171.932C387.562 170.216 383.136 168.576 378.917 166.654C378.859 166.62 378.817 166.567 378.799 166.507C378.781 166.447 378.788 166.382 378.819 166.326C378.85 166.27 378.902 166.227 378.966 166.203C379.03 166.18 379.102 166.18 379.166 166.201Z" fill="#263238"/>
<path d="M384.623 165.165C384.953 165.905 385.23 166.664 385.454 167.436C385.698 168.039 385.807 168.68 385.776 169.321C385.763 169.343 385.743 169.36 385.719 169.373C385.696 169.385 385.669 169.392 385.641 169.392C385.614 169.392 385.587 169.385 385.563 169.373C385.539 169.36 385.52 169.343 385.506 169.321C385.117 168.758 384.823 168.144 384.633 167.502C384.353 166.795 384.051 166.098 383.802 165.391C383.625 164.938 384.446 164.712 384.623 165.165Z" fill="#263238"/>
<path d="M384.622 161.347C384.435 160.696 384.248 160.055 384.051 159.405C383.853 158.755 383.583 158.086 383.438 157.407C383.438 157.303 383.23 157.35 383.261 157.407C383.438 158.057 383.521 158.736 383.645 159.396C383.77 160.055 383.916 160.715 384.061 161.366C384.335 162.6 384.682 163.821 385.1 165.022C384.369 164.974 383.659 164.778 383.022 164.448C382.402 163.983 381.959 163.353 381.754 162.647C381.463 161.912 381.204 161.168 380.902 160.442C380.529 159.646 380.23 158.823 380.009 157.982C380.009 157.869 379.801 157.916 379.822 157.982C380.18 159.759 380.733 161.498 381.474 163.175C381.796 163.835 382.035 164.514 382.752 164.834C383.54 165.137 384.389 165.288 385.246 165.277C385.339 165.277 385.485 165.277 385.464 165.154C385.246 163.948 384.975 162.619 384.622 161.347Z" fill="#263238"/>
<path d="M385.392 169.339C383.626 172.233 381.61 174.995 379.719 177.822C377.828 180.65 376.124 183.402 374.399 186.229C370.928 191.941 367.707 197.803 364.767 203.76C363.312 206.707 361.927 209.688 360.611 212.704C359.242 215.705 358.113 218.792 357.234 221.941C356.407 225.083 356.252 228.34 356.777 231.535C357.434 234.812 358.365 238.038 359.561 241.186C361.969 248.397 364.898 255.457 368.331 262.317C368.445 262.544 368.861 262.374 368.767 262.138C366.315 255.861 363.78 249.603 361.567 243.288C359.437 237.124 356.901 230.734 358.075 224.184C358.731 221.042 359.72 217.964 361.026 214.994C362.287 211.941 363.631 208.921 365.058 205.937C367.884 200.046 371.043 194.325 374.285 188.623C376.092 185.428 377.994 182.271 379.833 179.085C381.672 175.899 383.48 172.601 385.548 169.509C385.61 169.33 385.485 169.255 385.392 169.339Z" fill="#263238"/>
<path d="M419.211 163.157C418.37 163.035 417.133 163.299 413.507 163.073C412.499 162.992 411.499 162.843 410.514 162.63C409.516 162.488 408.567 162.14 407.74 161.612C406.423 160.481 405.348 159.139 404.571 157.653C403.599 156.121 402.855 154.48 402.358 152.771C402.358 152.667 402.16 152.714 402.181 152.818C402.379 153.761 402.483 154.703 402.763 155.702C403.03 156.6 403.378 157.476 403.802 158.322C404.469 159.997 405.587 161.494 407.054 162.677C408.696 163.798 410.992 164.006 412.977 164.138C414.13 164.213 418.65 164.138 419.211 163.515C419.377 163.412 419.367 163.186 419.211 163.157Z" fill="#263238"/>
<path d="M431.048 301.848C425.381 291.405 419.84 280.896 414.423 270.321C409.006 259.746 403.748 249.093 398.65 238.361C397.24 235.841 396.116 233.198 395.294 230.472C394.598 227.484 395.616 224.817 397.008 222.112C399.599 217.207 402.496 212.439 405.684 207.833C408.802 203.196 412.168 198.662 415.462 194.11C418.868 189.651 421.99 185.019 424.813 180.236C427.369 175.609 428.793 170.68 428.066 165.496C427.338 160.312 424.876 155.524 422.247 150.972C421.551 149.775 420.834 148.587 420.169 147.381C420.117 147.296 419.961 147.381 420.023 147.466C422.953 152.235 425.769 157.239 427.141 162.546C427.847 165.19 428.065 167.923 427.785 170.632C427.42 173.367 426.571 176.031 425.27 178.521C422.829 183.384 419.421 187.871 416.21 192.329C412.999 196.787 409.581 201.424 406.381 206.042C403.129 210.665 400.143 215.438 397.434 220.34C396.25 222.536 394.951 224.826 394.66 227.286C394.349 229.991 395.419 232.574 396.572 235.015C401.56 245.627 406.817 256.155 412.158 266.626C417.498 277.097 423.037 287.606 428.658 298.012L430.736 301.942C430.871 302.159 431.131 302.008 431.048 301.848Z" fill="#263238"/>
<path d="M374.844 65.5038C375.883 61.1966 381.161 51.4511 391.583 53.355C406.462 56.0788 408.613 82.0824 416.021 90.188C429.435 104.872 429.872 119.406 418.878 121.734C406.555 124.335 394.565 112.308 394.98 86.3897C395.261 70.1598 390.222 62.9685 386.668 63.4492C383.115 63.9298 381.151 68.0297 381.151 68.0297L374.844 65.5038Z" fill="#263238"/>
<path d="M375.344 63.8931C376.08 61.8839 377.081 59.963 378.326 58.1721C379.575 56.3371 381.231 54.7579 383.189 53.535C385.216 52.2926 387.622 51.6596 390.067 51.7254C392.492 51.7917 394.863 52.39 396.977 53.469C399.038 54.5875 400.81 56.095 402.172 57.8893C403.519 59.6523 404.638 61.5498 405.507 63.5443C407.158 67.4989 408.315 71.6087 408.957 75.7969C407.824 71.7476 406.359 67.7811 404.572 63.9308C403.645 62.0481 402.507 60.2573 401.174 58.5868C399.881 56.9379 398.216 55.5567 396.291 54.534C394.363 53.5368 392.201 52.9714 389.984 52.8846C387.79 52.7914 385.616 53.3041 383.75 54.3549C381.835 55.4499 380.174 56.871 378.856 58.5397C378.167 59.3728 377.532 60.2414 376.954 61.141C376.372 62.0081 375.842 62.9411 375.344 63.8931Z" fill="#263238"/>
<path d="M394.93 77.4453C395.086 80.0183 394.93 82.6008 394.868 85.1738C394.806 87.7469 394.691 90.3105 394.681 92.8741C394.67 95.4377 394.764 97.9919 395.055 100.527C395.292 103.051 395.8 105.548 396.572 107.982C397.302 110.401 398.533 112.672 400.198 114.674C401.945 116.623 404.055 118.279 406.432 119.566C408.813 120.876 411.501 121.658 414.277 121.847C415.666 121.944 417.063 121.877 418.433 121.649C419.138 121.529 419.832 121.365 420.511 121.159C421.188 120.977 421.832 120.707 422.423 120.357C421.265 121.123 419.946 121.665 418.548 121.95C417.154 122.28 415.718 122.441 414.277 122.431C412.824 122.407 411.379 122.22 409.976 121.875C408.576 121.518 407.227 121.015 405.954 120.376C404.679 119.743 403.475 118.998 402.359 118.152L401.539 117.511L400.749 116.842C400.213 116.384 399.713 115.893 399.253 115.372C397.466 113.269 396.14 110.876 395.346 108.322C393.906 103.276 393.352 98.0569 393.704 92.8552C393.787 90.2728 394.005 87.6997 394.255 85.1361C394.504 82.5725 394.837 80.0183 394.93 77.4453Z" fill="#263238"/>
<path d="M373.995 65.5809C373.828 64.3839 374.629 62.7534 375.46 62.4612C376.291 62.1691 382.92 64.1012 383.616 65.5432C384.312 66.9853 381.632 68.5215 381.632 68.5215L373.995 65.5809Z" fill="#F73859"/>
<path d="M381.93 108.029C377.847 113.317 348.317 135.192 332.212 136.003C324.939 136.361 296.49 133.552 290.152 131.186C282.369 128.284 297.757 110.8 302.62 111.545C308.709 112.487 330.3 114.551 334.602 114.655C341.501 114.815 362.656 104.287 376.901 101.545C384.268 100.14 385.089 103.958 381.93 108.029Z" fill="#EB9481"/>
<path d="M381.609 109.028C377.1 116.163 361.181 128.397 361.181 128.397L358.47 123.854L349.492 108.859C349.492 108.859 364.579 103.411 374.585 100.762C375.76 100.435 376.962 100.196 378.18 100.046C384.643 99.2922 385.485 102.902 381.609 109.028Z" fill="#DBDBDB"/>
<path d="M381.608 109.028C377.098 116.163 361.18 128.397 361.18 128.397L358.468 123.854L356.619 120.763L349.48 108.868C349.48 108.868 364.578 103.402 374.584 100.753C375.761 100.435 376.962 100.199 378.179 100.046C378.307 100.038 378.435 100.038 378.563 100.046C384.673 99.4432 385.421 103.025 381.608 109.028Z" fill="#384259"/>
<path d="M362.794 105.175C363.14 106.475 363.14 107.832 362.794 109.133C362.447 107.832 362.447 106.475 362.794 105.175ZM358.523 112.941C357.791 112.93 357.06 113.009 356.352 113.176C357.061 113.339 357.791 113.418 358.523 113.412C359.259 113.418 359.992 113.338 360.705 113.176C359.993 113.01 359.259 112.931 358.523 112.941ZM380.592 101.876C379.857 101.866 379.123 101.945 378.41 102.111C379.123 102.278 379.857 102.357 380.592 102.347C381.324 102.352 382.054 102.273 382.764 102.111C382.054 101.95 381.324 101.871 380.592 101.876ZM372.093 111.716C372.607 112.19 373.187 112.602 373.818 112.941C373.444 112.368 372.99 111.843 372.467 111.376C371.951 110.904 371.371 110.492 370.742 110.151C371.119 110.722 371.572 111.247 372.093 111.716ZM363.708 121.141C364.222 121.618 364.802 122.033 365.433 122.375C365.063 121.801 364.608 121.275 364.082 120.811C363.568 120.333 362.989 119.918 362.357 119.576C362.715 120.148 363.156 120.674 363.666 121.141H363.708Z" fill="white"/>
<path d="M363.955 125.051C362.448 122.29 355.799 111.168 354.188 108.85C354.074 108.689 353.939 108.708 354.022 108.85C356.967 114.406 360.242 119.815 363.83 125.051C363.872 125.164 363.997 125.127 363.955 125.051Z" fill="#263238"/>
<path d="M381.61 109.03C377.101 116.165 361.182 128.398 361.182 128.398L358.471 123.855L356.621 120.764C365.256 113.035 375.656 103.526 378.566 100.029C384.675 99.4445 385.423 103.026 381.61 109.03Z" fill="#A6A6A6"/>
<path d="M366.884 141.894L369.243 165.457C372.42 165.324 375.587 165.034 378.73 164.59C387.017 163.462 395.229 161.91 403.324 159.943C411.356 158.058 420.769 155.457 431.534 151.988C431.534 151.988 407.189 112.158 390.388 101.169C390.003 100.914 389.629 100.679 389.245 100.462C389.172 100.405 389.099 100.377 389.026 100.33C381.389 95.9471 374.48 99.3873 370.656 104.269C369.69 105.495 360.338 124.778 360.806 131.244C361.232 136.927 366.884 141.894 366.884 141.894Z" fill="#384259"/>
<path d="M380.396 116.672C380.58 117.315 380.667 117.978 380.655 118.642C380.666 119.309 380.579 119.975 380.396 120.621C380.212 119.975 380.125 119.309 380.136 118.642C380.129 117.978 380.217 117.316 380.396 116.672ZM386.058 141.347C386.052 142.014 386.14 142.679 386.318 143.326C386.507 142.681 386.594 142.014 386.578 141.347C386.589 140.68 386.502 140.014 386.318 139.368C386.14 140.015 386.052 140.68 386.058 141.347ZM404.19 127.304C404.179 127.971 404.266 128.637 404.449 129.283C404.796 127.982 404.796 126.625 404.449 125.324C404.266 125.971 404.179 126.636 404.19 127.304ZM370.94 138.34C370.929 139.008 371.017 139.673 371.2 140.319C371.547 139.019 371.547 137.662 371.2 136.361C371.017 137.007 370.929 137.673 370.94 138.34ZM391.887 120.97C391.152 120.964 390.419 121.044 389.705 121.206C391.139 121.52 392.635 121.52 394.069 121.206C393.359 121.044 392.63 120.965 391.898 120.97H391.887ZM407.348 138.548C406.612 138.533 405.878 138.612 405.166 138.783C406.6 139.097 408.096 139.097 409.53 138.783C408.821 138.618 408.091 138.538 407.359 138.548H407.348ZM383.845 152.478C383.113 152.467 382.382 152.546 381.674 152.713C382.382 152.88 383.113 152.96 383.845 152.949C384.581 152.959 385.315 152.88 386.027 152.713C385.317 152.552 384.588 152.473 383.856 152.478H383.845ZM411.224 149.763C410.492 149.758 409.762 149.837 409.052 149.999C410.483 150.313 411.975 150.313 413.406 149.999C412.693 149.837 411.959 149.758 411.224 149.763ZM380.593 101.847C379.857 101.836 379.124 101.916 378.411 102.082C379.124 102.249 379.857 102.328 380.593 102.318C381.325 102.323 382.055 102.243 382.765 102.082C382.053 101.93 381.324 101.861 380.593 101.875V101.847ZM391.711 106.21C392.225 106.688 392.804 107.103 393.436 107.445C393.068 106.869 392.613 106.342 392.085 105.88C391.571 105.403 390.991 104.988 390.36 104.646C390.735 105.229 391.192 105.764 391.721 106.239L391.711 106.21ZM414.414 128.255C414.928 128.733 415.507 129.148 416.139 129.49C415.768 128.916 415.313 128.39 414.788 127.926C414.272 127.45 413.693 127.036 413.063 126.691C413.435 127.273 413.889 127.809 414.414 128.284V128.255ZM378.11 130.612C378.623 131.089 379.203 131.504 379.835 131.846C379.059 130.692 377.99 129.723 376.717 129.019C377.1 129.613 377.568 130.158 378.11 130.64V130.612ZM398.994 146.568C399.508 147.046 400.088 147.461 400.719 147.803C399.943 146.649 398.875 145.679 397.602 144.975C397.987 145.56 398.455 146.095 398.994 146.568ZM372.146 111.696C372.66 112.17 373.239 112.582 373.87 112.921C373.497 112.349 373.043 111.823 372.52 111.356C372.003 110.884 371.424 110.473 370.795 110.131C371.154 110.706 371.59 111.238 372.094 111.715L372.146 111.696ZM370.67 124.08C371.194 123.612 371.651 123.087 372.031 122.516C371.398 122.852 370.818 123.264 370.306 123.741C369.78 124.207 369.323 124.733 368.945 125.305C369.555 124.966 370.116 124.561 370.618 124.099L370.67 124.08ZM419.973 140.913C420.499 140.449 420.953 139.923 421.324 139.349C420.048 140.049 418.978 141.019 418.206 142.176C418.835 141.83 419.411 141.412 419.921 140.932L419.973 140.913ZM373.361 147.662C373.884 147.195 374.338 146.669 374.712 146.097C373.436 146.797 372.367 147.767 371.595 148.925C372.223 148.579 372.799 148.16 373.309 147.68L373.361 147.662ZM401.187 115.174C401.713 114.707 402.171 114.182 402.548 113.609C401.915 113.949 401.335 114.364 400.823 114.844C400.297 115.31 399.839 115.836 399.462 116.408C400.074 116.068 400.636 115.66 401.135 115.192L401.187 115.174ZM394.288 157.492C394.816 157.028 395.274 156.502 395.649 155.927C395.016 156.267 394.436 156.682 393.924 157.162C393.398 157.628 392.94 158.154 392.563 158.727C393.175 158.387 393.737 157.978 394.236 157.511L394.288 157.492ZM394.288 132.044C394.819 131.583 395.277 131.056 395.649 130.48C394.376 131.183 393.307 132.153 392.532 133.307C393.167 132.956 393.748 132.528 394.256 132.035L394.288 132.044Z" fill="white"/>
<path d="M384.26 99.9247C384.114 100.867 379.979 106.993 375.469 107.154C373.994 107.201 373.339 99.9436 373.339 99.9436L373.152 99.4158L370.586 92.0548L379.771 85.6741L381.111 84.8164C381.111 84.8164 381.662 86.8805 382.327 89.4441L382.421 89.8117C382.421 89.953 382.504 90.085 382.535 90.2264L382.847 91.3856C382.919 91.6873 382.992 91.9794 383.054 92.3282L383.273 93.2707C383.769 95.4656 384.099 97.6889 384.26 99.9247Z" fill="#EB9481"/>
<path d="M382.366 89.4441C381.732 91.6188 380.583 93.6419 378.998 95.3722C377.414 97.1026 375.432 98.4986 373.191 99.4629L370.625 92.102L379.769 85.6741L381.109 84.8164C381.109 84.8164 381.66 86.8334 382.366 89.4441Z" fill="#263238"/>
<path d="M359.196 80.96C359.123 94.5132 368.069 96.0872 371.29 96.0966C374.21 96.0966 384.174 95.8044 385.837 82.3266C387.499 68.8488 380.527 64.5416 373.846 64.1929C367.165 63.8442 359.268 67.3785 359.196 80.96Z" fill="#EB9481"/>
<path d="M384.975 83.2409C382.533 83.4671 381.857 78.8206 381.857 78.8206C381.857 78.8206 376.88 78.9526 375.062 72.487C375.255 74.4319 376.071 76.2831 377.41 77.8121C377.41 77.8121 368.589 77.1901 364.703 70.5926C364.703 70.5926 366.272 73.9573 367.685 75.1354C365.442 74.5613 363.477 73.3198 362.105 71.6105C362.105 71.6105 360.671 75.4936 359.518 76.5775C359.518 76.5775 357.814 69.7537 360.942 66.2099C367.529 58.6699 378.346 65.2674 378.346 65.2674C378.346 65.2674 384.393 66.0968 386.554 70.2061C389.889 76.4926 384.975 83.2409 384.975 83.2409Z" fill="#263238"/>
<path d="M383.408 83.326C383.408 83.326 386.275 78.868 388.489 79.7634C390.702 80.6587 388.8 86.9547 386.41 87.9726C386.115 88.1234 385.789 88.2188 385.452 88.253C385.115 88.2871 384.774 88.2594 384.45 88.1715C384.125 88.0835 383.823 87.9371 383.562 87.741C383.3 87.5449 383.086 87.3031 382.93 87.0301L383.408 83.326Z" fill="#EB9481"/>
<path d="M361.068 78.218C361.419 78.1627 361.766 78.0872 362.107 77.9918C362.474 77.9545 362.817 77.8088 363.084 77.5771C363.157 77.4924 363.197 77.3879 363.197 77.2802C363.197 77.1726 363.157 77.068 363.084 76.9833C362.906 76.8421 362.691 76.7459 362.459 76.7045C362.227 76.6632 361.988 76.678 361.764 76.7477C361.289 76.8296 360.863 77.0679 360.569 77.4169C360.512 77.4964 360.48 77.5886 360.477 77.6835C360.474 77.7783 360.499 77.8722 360.55 77.9548C360.602 78.0375 360.677 78.1057 360.769 78.1521C360.86 78.1985 360.963 78.2213 361.068 78.218Z" fill="#263238"/>
<path d="M370.815 79.2737C370.466 79.2422 370.119 79.1918 369.776 79.1229C369.396 79.1163 369.03 78.9934 368.737 78.7741C368.662 78.6902 368.621 78.5854 368.621 78.4772C368.621 78.3691 368.662 78.2643 368.737 78.1804C368.9 78.0261 369.106 77.9148 369.332 77.8583C369.559 77.8019 369.799 77.8024 370.026 77.8599C370.507 77.9082 370.954 78.1123 371.283 78.4348C371.35 78.5124 371.392 78.6058 371.402 78.7041C371.413 78.8023 371.393 78.9013 371.344 78.9895C371.295 79.0776 371.219 79.1511 371.125 79.2015C371.032 79.2518 370.924 79.2769 370.815 79.2737Z" fill="#263238"/>
<path d="M368.861 82.0449C368.861 82.0449 368.934 82.0449 368.934 82.1298C368.934 83.0723 369.069 84.1279 369.973 84.42V84.4766C368.861 84.3446 368.643 82.9309 368.861 82.0449Z" fill="#263238"/>
<path d="M369.724 81.0654C371.366 80.9241 371.553 83.8929 370.026 84.0532C368.498 84.2134 368.342 81.1785 369.724 81.0654Z" fill="#263238"/>
<path d="M370.378 81.1872C370.679 81.3475 370.981 81.6302 371.334 81.6491C371.687 81.6679 372.02 81.3286 372.269 81.0176H372.321C372.321 81.5925 372.155 82.1957 371.49 82.3182C370.825 82.4408 370.451 81.9412 370.201 81.3757C370.17 81.2909 370.264 81.1307 370.378 81.1872Z" fill="#263238"/>
<path d="M363.137 82.0918C363.137 82.0918 363.054 82.1389 363.064 82.1766C363.158 83.1191 363.064 84.1842 362.191 84.5423C362.191 84.5423 362.191 84.5989 362.191 84.5423C363.324 84.3821 363.386 82.9589 363.137 82.0918Z" fill="#263238"/>
<path d="M362.149 81.1777C360.497 81.1777 360.581 84.156 362.149 84.1749C363.718 84.1938 363.542 81.1966 362.149 81.1777Z" fill="#263238"/>
<path d="M361.475 81.3846C361.215 81.5542 360.966 81.8464 360.654 81.8747C360.342 81.903 360.01 81.5825 359.771 81.2715H359.719C359.719 81.8464 359.947 82.4402 360.56 82.5344C361.173 82.6287 361.506 82.1197 361.599 81.5448C361.672 81.4788 361.589 81.3186 361.475 81.3846Z" fill="#263238"/>
<path d="M364.851 86.2C364.851 86.2 364.706 87.5572 364.706 88.2453C366.104 88.2067 367.502 88.3398 368.862 88.6411C369.184 88.7259 369.163 88.4809 368.799 88.3018C367.715 87.7724 366.482 87.5461 365.256 87.6515C365.204 87.4724 365.526 85.512 365.412 85.512C364.854 85.5756 364.309 85.7088 363.791 85.9079C363.999 82.9955 364.726 80.1303 364.882 77.2274C364.882 77.2049 364.872 77.1833 364.855 77.1674C364.837 77.1515 364.813 77.1426 364.789 77.1426C364.764 77.1426 364.74 77.1515 364.723 77.1674C364.705 77.1833 364.695 77.2049 364.695 77.2274C363.817 80.2688 363.274 83.3817 363.074 86.5205C363.105 86.8692 364.57 86.3226 364.851 86.2Z" fill="#263238"/>
<path d="M366.398 88.2473C366.919 88.868 367.649 89.3179 368.477 89.5291C369.734 89.6422 369.817 88.5866 368.414 88.106C367.741 87.9849 367.043 88.0338 366.398 88.2473Z" fill="#263238"/>
<path d="M368.497 89.5277C368.023 89.4557 367.581 89.2665 367.219 88.9811C367.447 88.6135 368.029 88.1988 369.401 88.7926C369.619 89.2261 369.297 89.6031 368.497 89.5277Z" fill="#FF99BA"/>
<path d="M382.065 98.3027C383.894 98.3027 386.969 98.7174 391.125 101.583C391.125 101.583 382.46 107.907 374.397 107.907C371.519 107.907 370.656 104.259 370.656 104.259C370.656 104.259 374.532 98.3593 382.065 98.3027Z" fill="#EB9481"/>
<path d="M518.96 369.668H485.015C460.348 369.668 445.261 354.202 442.549 326.125C441.208 312.279 440.388 295.522 439.525 277.784C436.865 223.279 433.218 148.661 409.829 148.661H382.949V143.006H409.829C439.172 143.006 442.518 211.403 445.749 277.548C446.611 295.229 447.432 311.931 448.762 325.616C450.456 343.127 458.114 364.004 485.015 364.004H518.96V369.668Z" fill="#F73859"/>
<path opacity="0.2" d="M402.691 142.986L401.361 148.641H382.949V142.986H402.691Z" fill="black"/>
<path d="M332.286 111.971H321.418V180.858H332.286V111.971Z" fill="#F73859"/>
<path d="M321.428 117.059H280.105V175.06H321.428V117.059Z" fill="#F73859"/>
<path opacity="0.2" d="M321.419 117.068V175.07H311.154L306.551 117.068H321.419Z" fill="black"/>
<path d="M248.395 127.475H280.096V136.146H248.395C247.309 136.146 246.268 135.754 245.5 135.058C244.732 134.362 244.301 133.417 244.301 132.432V131.197C244.299 130.709 244.404 130.225 244.609 129.774C244.815 129.322 245.116 128.911 245.496 128.566C245.876 128.22 246.328 127.945 246.826 127.758C247.323 127.571 247.856 127.475 248.395 127.475Z" fill="#DBDBDB"/>
<path d="M280.097 127.475H268.969V136.136H280.097V127.475Z" fill="#A6A6A6"/>
<path d="M248.395 155.984H280.096V164.655H248.395C247.309 164.655 246.268 164.264 245.5 163.568C244.732 162.871 244.301 161.927 244.301 160.942V159.707C244.299 159.219 244.404 158.735 244.609 158.283C244.815 157.832 245.116 157.421 245.496 157.075C245.876 156.73 246.328 156.455 246.826 156.268C247.323 156.081 247.856 155.984 248.395 155.984Z" fill="#DBDBDB"/>
<path d="M280.097 155.984H268.969V164.646H280.097V155.984Z" fill="#A6A6A6"/>
<path d="M396.51 140.527H364.227V152.092H396.51V140.527Z" fill="#F73859"/>
<path d="M396.51 140.537H364.227V152.102H396.51V140.537Z" fill="#F73859"/>
<path opacity="0.2" d="M375.563 140.537L374.503 152.102H364.227V140.537H375.563Z" fill="black"/>
<path d="M332.285 119.246H357.835C359.53 119.246 361.155 119.857 362.354 120.944C363.552 122.031 364.225 123.505 364.225 125.042V167.088C364.225 168.625 363.552 170.099 362.354 171.186C361.155 172.273 359.53 172.884 357.835 172.884H332.285V119.246Z" fill="#F73859"/>
<path opacity="0.2" d="M345.877 119.246L341.274 172.884H332.297V119.246H345.877Z" fill="black"/>
<g opacity="0.2">
<path opacity="0.2" d="M343.497 130.084H341.461V162.035H343.497V130.084Z" fill="black"/>
<path opacity="0.2" d="M349.275 130.084H347.238V162.035H349.275V130.084Z" fill="black"/>
<path opacity="0.2" d="M355.052 130.084H353.016V162.035H355.052V130.084Z" fill="black"/>
</g>
<path d="M393.517 108.171C397.092 117.267 391.969 150.584 385.912 157.643C376.913 168.105 359.135 177.728 352.34 180.735C349.368 182.045 336.058 162.742 338.957 160.942C345.191 157.068 365.048 147.823 366.731 145.985C368.414 144.147 377.475 126.494 381.101 116.569C385.974 103.242 391.72 103.581 393.517 108.171Z" fill="#EB9481"/>
<path d="M352.32 180.791C342.896 185.673 324.141 184.957 321.585 184.25L318.281 183.308C314.343 182.299 313.283 180.329 313.283 180.329C313.283 180.329 308.358 180.386 307.818 177.69C307.215 174.665 314.249 175.174 318.312 173.308C327.663 169.038 339.529 160.593 342.075 159.123L352.32 180.791Z" fill="#EB9481"/>
<path d="M331.538 175.062C328.832 176.348 326.031 177.46 323.153 178.389C319.942 179.234 316.667 179.864 313.355 180.274C313.339 180.28 313.325 180.289 313.316 180.302C313.306 180.315 313.301 180.33 313.301 180.345C313.301 180.361 313.306 180.376 313.316 180.388C313.325 180.401 313.339 180.41 313.355 180.416C319.856 180.255 326.184 178.482 331.653 175.289C331.788 175.213 331.673 175.006 331.538 175.062Z" fill="#263238"/>
<path d="M335.196 179.782C332.432 180.819 327.559 182.61 318.27 183.232C318.27 183.232 318.27 183.279 318.27 183.288C324.169 183.658 330.065 182.532 335.299 180.037C335.466 179.924 335.383 179.716 335.196 179.782Z" fill="#263238"/>
<path d="M329.17 167.531C330.136 166.588 329.565 166.079 327.009 166.494C324.453 166.909 314.738 170.547 313.626 167.371C312.514 164.194 326.313 159.237 330.625 158.832C334.521 158.649 338.426 158.753 342.304 159.143C339.831 160.594 333.97 164.628 329.17 167.531Z" fill="#EB9481"/>
<path d="M383.491 110.462C389.777 98.4639 395.512 101.64 396.063 113.506C396.249 121.747 395.839 129.989 394.837 138.181L372.051 132.262C372.051 132.262 379.47 118.143 383.491 110.462Z" fill="#384259"/>
<path d="M389.163 103.467C390.435 104.171 391.504 105.14 392.28 106.294C391.007 105.591 389.938 104.621 389.163 103.467ZM380.133 118.66C380.122 119.327 380.21 119.993 380.393 120.639C380.577 119.993 380.664 119.327 380.653 118.66C380.665 117.996 380.577 117.333 380.393 116.69C380.214 117.334 380.127 117.996 380.133 118.66ZM391.895 120.988C391.16 120.982 390.427 121.062 389.713 121.224C391.147 121.538 392.643 121.538 394.077 121.224C393.365 121.055 392.632 120.97 391.895 120.969V120.988ZM378.107 130.639C378.621 131.117 379.201 131.532 379.832 131.874C379.056 130.719 377.987 129.75 376.715 129.046C377.1 129.631 377.568 130.166 378.107 130.639ZM394.254 132.034C394.786 131.572 395.244 131.046 395.615 130.469C394.342 131.173 393.274 132.143 392.498 133.297C393.144 132.951 393.735 132.526 394.254 132.034Z" fill="white"/>
<path d="M381.33 114.118C380.478 115.692 379.584 117.238 378.691 118.831C378.843 118.096 378.968 117.351 379.065 116.597H379.003C378.878 117.181 378.722 117.766 378.597 118.35C378.545 118.633 378.483 118.916 378.421 119.198C378.421 119.255 378.421 119.311 378.421 119.377C377.725 120.584 377.039 121.8 376.343 123.025C375.553 124.495 374.815 125.975 374.067 127.455C373.319 128.934 372.623 130.744 371.781 132.243C372.497 132.513 373.243 132.715 374.005 132.846C374.202 132.912 374.306 132.733 374.098 132.704C373.891 132.676 372.186 132.063 372.166 132.054C372.914 130.555 373.839 129.142 374.628 127.671C375.418 126.201 376.228 124.75 376.987 123.27C378.525 120.273 379.875 117.191 381.403 114.184C381.403 114.109 381.33 114.08 381.33 114.118Z" fill="#263238"/>
<path d="M397.008 121.263C396.8 121.875 396.561 122.488 396.384 123.148C396.322 123.411 396.249 123.666 396.177 123.93C396.26 121.781 396.336 119.638 396.405 117.502C396.083 121.008 395.751 124.505 395.501 128.011C395.14 131.369 394.97 134.741 394.992 138.114C394.309 137.968 393.614 137.87 392.914 137.822C393.67 138.114 394.462 138.319 395.273 138.435C395.844 135.042 395.886 131.291 396.073 127.879C396.125 126.936 396.156 125.994 396.197 124.985C396.322 124.392 396.509 123.807 396.686 123.223C396.862 122.639 396.998 121.96 397.143 121.338C397.091 121.244 397.018 121.225 397.008 121.263Z" fill="#263238"/>
<path d="M393.914 135.052C390.703 134.015 377.403 130.207 374.473 129.557C374.265 129.51 374.182 129.613 374.39 129.679C380.764 131.828 387.265 133.656 393.862 135.155C393.945 135.184 393.997 135.07 393.914 135.052Z" fill="#263238"/>
<path d="M282.205 131.857C285.322 132.724 284.688 128.86 284.688 128.86C284.688 128.86 287.13 134.213 290.756 133.978C294.383 133.742 293.261 129.096 293.198 128.756C293.323 129.039 295.713 133.902 299.329 133.327C302.944 132.752 301.209 128.21 301.085 127.927C301.303 128.153 304.202 131.16 306.862 130.151C311.392 128.417 304.16 120.538 304.69 116.956L311.059 117.126C311.269 117.107 311.477 117.079 311.683 117.041L311.922 114.091C309.886 113.341 307.92 112.446 306.041 111.414C303.641 110.189 301.324 109.077 299.599 109.039C298.825 109.002 298.058 109.191 297.413 109.58C296.767 109.969 296.277 110.536 296.014 111.197C296.014 111.197 294.144 108.521 291.276 108.898C289.811 109.096 288.855 111.405 288.855 111.405C288.395 110.814 287.762 110.35 287.028 110.065C286.295 109.781 285.488 109.687 284.699 109.793C282.683 110.17 282.039 112.432 282.039 112.432C282.039 112.432 279.483 111.065 277.561 112.065C273.706 114.006 275.472 129.972 282.205 131.857Z" fill="#EB9481"/>
<path d="M305.48 116.616L311.029 117.078C311.238 117.059 311.446 117.031 311.652 116.993C318.656 115.843 323.02 108.567 317.887 108.049C314.032 107.643 309.855 112.29 305.958 111.357L305.48 116.616Z" fill="#EB9481"/>
<path d="M281.905 112.723H281.811C280.928 118.298 281.935 123.985 284.7 129.028C284.793 129.188 285.115 129.113 285.053 128.924C283.141 123.691 282.08 118.233 281.905 112.723Z" fill="#263238"/>
<path d="M288.855 111.282C288.855 111.216 288.741 111.216 288.731 111.282C287.795 117.429 289.313 123.677 293.011 128.897C293.146 129.076 293.469 129.114 293.323 128.897C291.016 125.259 288.855 116.456 288.855 111.282Z" fill="#263238"/>
<path d="M301.5 128.152C297.916 123.025 296.492 117.37 295.962 111.376C295.962 111.301 295.837 111.319 295.817 111.376C295.204 114.373 295.983 118.162 296.856 121.065C297.618 123.772 299.148 126.251 301.292 128.256C301.396 128.341 301.583 128.266 301.5 128.152Z" fill="#263238"/>
<path d="M213.733 342.977C211.582 343.627 149.998 343.467 147.649 342.119C146.766 341.61 146.267 333.467 145.977 323.618C145.904 321.497 145.862 319.301 145.821 317.067C145.821 314.428 145.738 311.752 145.717 309.15C145.644 297.482 145.821 287.209 145.821 287.209H185.917V309.15V317.067L185.71 323.618C185.71 323.618 209.254 333.25 211.686 334.984C214.117 336.719 215.883 342.374 213.733 342.977Z" fill="#AD6359"/>
<path d="M213.731 342.977C211.58 343.627 149.996 343.467 147.647 342.119C146.764 341.61 146.266 333.467 145.975 323.618C145.902 321.497 145.86 319.301 145.819 317.067C145.819 314.428 145.736 311.752 145.715 309.15H185.895V317.067L185.687 323.618C185.687 323.618 209.232 333.25 211.663 334.984C214.094 336.719 215.881 342.374 213.731 342.977Z" fill="white"/>
<path d="M213.917 343.099C212.515 343.523 186.289 343.608 167.16 343.25C162.734 343.156 158.692 343.052 155.44 342.92C150.941 342.732 147.928 342.515 147.439 342.232C146.348 341.601 145.839 329.65 145.59 317.039H185.874L185.666 323.637C185.666 323.637 209.346 333.325 211.756 335.069C214.167 336.813 216.12 342.44 213.917 343.099Z" fill="#F73859"/>
<path d="M213.003 340.855C202.613 340.592 160.739 340.441 150.453 340.903C150.37 340.903 150.37 340.95 150.453 340.959C160.739 341.421 202.623 341.261 213.003 341.006C213.253 340.997 213.263 340.855 213.003 340.855Z" fill="#263238"/>
<path d="M187.173 321.543C183.09 320.846 178.092 321.402 174.964 324.031C174.84 324.135 174.964 324.286 175.141 324.248C179.048 323.113 183.079 322.364 187.163 322.014C187.232 322.016 187.298 321.992 187.348 321.949C187.398 321.905 187.426 321.846 187.428 321.783C187.429 321.721 187.403 321.66 187.355 321.615C187.308 321.57 187.242 321.544 187.173 321.543Z" fill="#263238"/>
<path d="M190.144 323.185C186.061 322.478 181.063 323.034 177.925 325.673C177.811 325.768 177.925 325.928 178.101 325.89C182.014 324.748 186.052 323.993 190.144 323.638C190.198 323.623 190.245 323.594 190.279 323.553C190.313 323.512 190.331 323.462 190.331 323.411C190.331 323.36 190.313 323.311 190.279 323.27C190.245 323.229 190.198 323.199 190.144 323.185Z" fill="#263238"/>
<path d="M193.064 324.787C188.981 324.08 183.983 324.636 180.855 327.266C180.731 327.369 180.855 327.53 181.022 327.492C184.93 326.36 188.96 325.608 193.043 325.249C193.103 325.24 193.157 325.213 193.197 325.173C193.237 325.132 193.26 325.08 193.263 325.026C193.265 324.971 193.247 324.917 193.21 324.874C193.174 324.83 193.123 324.8 193.064 324.787Z" fill="#263238"/>
<path d="M196.005 326.408C191.922 325.701 186.924 326.257 183.797 328.887C183.672 328.99 183.797 329.151 183.973 329.113C187.876 327.975 191.903 327.223 195.984 326.87C196.044 326.861 196.098 326.834 196.138 326.794C196.178 326.753 196.201 326.701 196.204 326.647C196.206 326.592 196.188 326.539 196.152 326.495C196.115 326.452 196.064 326.421 196.005 326.408Z" fill="#263238"/>
<path d="M194.748 312.995C193.148 310.988 190.155 311.883 188.451 313.175C185.562 315.451 183.383 318.376 182.134 321.657C182.127 321.671 182.124 321.687 182.125 321.702C182.127 321.718 182.132 321.733 182.142 321.746C182.151 321.759 182.163 321.77 182.178 321.777C182.193 321.785 182.21 321.789 182.227 321.789C182.227 322.072 182.518 322.373 182.861 322.251C186.238 321.129 190.01 320.309 192.898 318.273C194.592 317.086 196.265 314.899 194.748 312.995ZM187.599 319.593C185.957 320.177 184.285 320.696 182.664 321.337C183.842 319.654 185.115 318.028 186.477 316.464C187.143 315.713 187.869 315.008 188.648 314.353C189.864 313.344 194.685 311.224 193.948 315.295C193.542 317.529 189.563 318.886 187.599 319.593Z" fill="#263238"/>
<path d="M171.755 320.65C175.111 321.96 179.028 321.903 182.561 322.233C182.641 322.233 182.719 322.216 182.79 322.184C182.861 322.151 182.923 322.105 182.972 322.047C183.02 321.99 183.053 321.923 183.068 321.853C183.083 321.782 183.081 321.709 183.06 321.639C183.073 321.631 183.083 321.619 183.091 321.606C183.098 321.593 183.102 321.579 183.102 321.564C183.102 321.549 183.098 321.535 183.091 321.522C183.083 321.509 183.073 321.497 183.06 321.489C180.963 318.6 178.069 316.26 174.665 314.702C172.649 313.835 169.469 313.647 168.513 315.956C167.557 318.265 169.791 319.886 171.755 320.65ZM169.916 318.011C168.087 314.241 173.335 315.183 174.789 315.89C175.722 316.359 176.621 316.882 177.48 317.455C179.229 318.659 180.908 319.946 182.509 321.309C180.764 321.055 179.008 320.932 177.252 320.734C175.153 320.499 170.924 320.084 169.916 318.011Z" fill="#263238"/>
<path d="M191.612 314.475L141.925 315.286C141.925 315.286 135.16 275.408 130.713 250.611C129.03 241.29 127.7 234.089 127.16 231.921C125.871 226.747 100.695 144.617 100.695 144.617L136.812 144.57H149.156C149.156 144.57 148.367 158.303 148.834 159.745C155.276 179.622 168.441 214.872 172.556 227.152C178.863 246.031 191.612 314.475 191.612 314.475Z" fill="#F73859"/>
<path d="M187.09 307.566C179.962 307.519 154.672 307.264 145.175 308.065C145.161 308.07 145.15 308.079 145.141 308.09C145.133 308.1 145.129 308.113 145.129 308.127C145.129 308.14 145.133 308.153 145.141 308.164C145.15 308.174 145.161 308.183 145.175 308.188C148.448 308.612 179.962 307.952 187.1 307.745C187.116 307.749 187.132 307.749 187.149 307.746C187.165 307.743 187.18 307.736 187.192 307.727C187.205 307.718 187.215 307.706 187.222 307.692C187.228 307.679 187.231 307.664 187.231 307.649C187.23 307.634 187.225 307.62 187.217 307.607C187.209 307.594 187.197 307.583 187.183 307.575C187.17 307.567 187.154 307.562 187.138 307.56C187.121 307.558 187.105 307.56 187.09 307.566Z" fill="#263238"/>
<path d="M142.735 273.581C141.017 263.27 139.102 252.984 136.989 242.723C135.95 237.681 134.818 232.648 133.363 227.643C131.908 222.639 130.059 217.691 128.168 212.78C124.448 203.016 120.895 193.204 117.559 183.327C114.224 173.45 111.117 163.534 108.208 153.534C107.834 152.272 107.47 151.009 107.065 149.764C107.065 149.661 106.867 149.708 106.888 149.764C108.021 154.797 109.486 159.783 110.889 164.76C112.291 169.736 113.798 174.694 115.367 179.632C118.526 189.547 121.951 199.393 125.643 209.17C127.482 214.034 129.394 218.888 131.025 223.817C132.657 228.746 133.924 233.741 135.057 238.774C137.353 248.991 139.306 259.274 141.114 269.557C142.922 279.839 144.47 290.292 145.987 300.659C146.185 301.969 146.372 303.289 146.559 304.608C146.611 304.976 147.255 304.976 147.214 304.608C146.039 294.269 144.429 283.911 142.735 273.581Z" fill="#263238"/>
<path d="M136.812 144.553L130.713 250.613C129.03 241.291 127.7 234.09 127.16 231.923C125.871 226.748 100.695 144.619 100.695 144.619L136.812 144.553Z" fill="#263238"/>
<path d="M152.108 351.912C149.957 352.563 88.3726 352.403 86.0244 351.045C85.1412 350.546 84.6425 342.403 84.3515 332.553C84.2788 330.423 84.2373 328.237 84.1957 326.003C84.1957 323.355 84.1126 320.687 84.0918 318.086C84.0191 306.418 84.1957 296.145 84.1957 296.145H124.282V326.012L124.074 332.563C124.074 332.563 147.619 342.195 150.05 343.929C152.482 345.664 154.258 351.272 152.108 351.912Z" fill="#AD6359"/>
<path d="M152.106 351.912C149.955 352.563 88.3707 352.402 86.0225 351.045C85.1393 350.546 84.6405 342.403 84.3496 332.553C84.2769 330.423 84.2353 328.237 84.1937 326.003C84.1937 323.355 84.1106 320.687 84.0898 318.086H124.27V326.012L124.062 332.563C124.062 332.563 147.607 342.195 150.038 343.929C152.469 345.664 154.256 351.271 152.106 351.912Z" fill="white"/>
<path d="M152.294 351.996C150.891 352.41 124.655 352.495 105.537 352.137C101.121 352.052 97.0789 351.939 93.8163 351.817C89.3276 351.628 86.3144 351.402 85.8157 351.119C84.7766 350.488 84.2155 338.546 83.9766 325.936H124.26L124.052 332.533C124.052 332.533 147.753 342.213 150.164 343.918C152.574 345.624 154.455 351.336 152.294 351.996Z" fill="#F73859"/>
<path d="M151.41 349.745C141.019 349.49 99.1354 349.33 88.8592 349.792C88.7761 349.792 88.7761 349.848 88.8592 349.858C99.1354 350.31 141.03 350.159 151.41 349.905C151.628 349.896 151.628 349.754 151.41 349.745Z" fill="#263238"/>
<path d="M125.548 330.441C121.465 329.734 116.467 330.29 113.34 332.92C113.215 333.024 113.34 333.184 113.506 333.146C117.414 332.014 121.444 331.262 125.528 330.903C125.587 330.895 125.641 330.868 125.681 330.827C125.721 330.786 125.745 330.734 125.747 330.68C125.749 330.625 125.731 330.572 125.695 330.528C125.659 330.485 125.607 330.454 125.548 330.441Z" fill="#263238"/>
<path d="M128.49 332.062C124.406 331.355 119.408 331.911 116.281 334.541C116.156 334.645 116.281 334.805 116.458 334.767C120.364 333.629 124.395 332.877 128.479 332.524C128.538 332.514 128.592 332.486 128.631 332.445C128.67 332.404 128.692 332.351 128.693 332.297C128.694 332.243 128.674 332.19 128.637 332.147C128.6 332.104 128.548 332.074 128.49 332.062Z" fill="#263238"/>
<path d="M131.441 333.674C127.357 332.976 122.36 333.532 119.222 336.162C119.107 336.266 119.222 336.417 119.398 336.379C123.307 335.249 127.337 334.5 131.42 334.145C131.489 334.148 131.556 334.125 131.607 334.083C131.657 334.04 131.687 333.981 131.69 333.919C131.693 333.856 131.668 333.796 131.621 333.75C131.575 333.704 131.51 333.676 131.441 333.674Z" fill="#263238"/>
<path d="M134.381 335.295C130.297 334.598 125.299 335.154 122.172 337.783C122.047 337.887 122.172 338.038 122.338 338C126.247 336.871 130.277 336.122 134.36 335.766C134.429 335.769 134.496 335.746 134.546 335.704C134.597 335.661 134.627 335.602 134.63 335.54C134.633 335.478 134.608 335.417 134.561 335.371C134.514 335.325 134.449 335.297 134.381 335.295Z" fill="#263238"/>
<path d="M133.121 321.893C131.521 319.876 128.528 320.771 126.814 322.072C123.925 324.348 121.746 327.274 120.497 330.555C120.492 330.57 120.491 330.585 120.494 330.601C120.497 330.616 120.503 330.631 120.513 330.643C120.523 330.656 120.536 330.666 120.552 330.674C120.567 330.681 120.583 330.686 120.6 330.687C120.596 330.759 120.61 330.831 120.642 330.897C120.675 330.963 120.724 331.021 120.786 331.066C120.848 331.111 120.921 331.142 120.999 331.156C121.077 331.171 121.158 331.168 121.234 331.148C124.611 330.027 128.373 329.207 131.271 327.171C132.996 326.012 134.628 323.787 133.121 321.893ZM125.972 328.491C124.32 329.084 122.658 329.593 121.037 330.244C122.273 328.594 123.427 326.907 124.84 325.371C125.512 324.622 126.237 323.913 127.011 323.25C128.237 322.251 133.048 320.131 132.321 324.193C131.957 326.426 127.936 327.784 125.972 328.481V328.491Z" fill="#263238"/>
<path d="M110.138 329.546C113.504 330.857 117.411 330.8 120.954 331.13C121.035 331.13 121.114 331.114 121.186 331.081C121.258 331.048 121.32 331 121.368 330.941C121.416 330.883 121.447 330.814 121.46 330.742C121.473 330.67 121.467 330.596 121.442 330.527C121.459 330.522 121.473 330.514 121.485 330.503C121.498 330.492 121.507 330.479 121.513 330.465C121.519 330.45 121.521 330.435 121.52 330.419C121.519 330.404 121.513 330.389 121.505 330.376C119.387 327.491 116.475 325.158 113.057 323.609C111.042 322.742 107.862 322.553 106.906 324.862C105.95 327.171 108.153 328.783 110.138 329.546ZM108.309 326.898C106.48 323.128 111.727 324.071 113.182 324.787C114.117 325.249 115.016 325.769 115.873 326.342C117.62 327.553 119.298 328.843 120.902 330.206C119.146 329.942 117.39 329.829 115.634 329.631C113.525 329.396 109.296 328.981 108.288 326.898H108.309Z" fill="#263238"/>
<path d="M129.879 322.837H81.2617C81.2617 322.837 91.8288 186.099 90.1248 178.436C87.3297 165.891 89.1896 151.48 95.7356 144.506H138.991C138.991 144.506 139.853 155.514 135.386 162.093C135.386 162.093 131.323 164.421 129.359 165.448L129.879 322.837Z" fill="#F73859"/>
<path d="M125.349 315.7C118.616 315.549 120.559 315.502 113.816 315.418C110.522 315.37 88.8787 315.097 85.7616 315.54C85.6888 315.54 85.6888 315.653 85.7616 315.663C88.8787 316.143 110.512 316.077 113.816 316.058C120.549 316.058 118.616 315.974 125.349 315.879C125.37 315.873 125.388 315.861 125.401 315.845C125.414 315.829 125.421 315.81 125.421 315.79C125.421 315.77 125.414 315.751 125.401 315.735C125.388 315.718 125.37 315.706 125.349 315.7Z" fill="#263238"/>
<path d="M138.09 160.367C133.837 162.227 129.767 164.412 125.923 166.899C125.891 166.916 125.868 166.945 125.859 166.977C125.851 167.01 125.857 167.044 125.876 167.073C125.895 167.102 125.926 167.123 125.962 167.13C125.998 167.138 126.036 167.133 126.068 167.116C130.224 165.052 134.38 163.053 138.37 160.791C138.432 160.758 138.477 160.703 138.495 160.639C138.512 160.576 138.501 160.508 138.464 160.452C138.427 160.396 138.366 160.355 138.296 160.339C138.226 160.324 138.152 160.334 138.09 160.367Z" fill="#263238"/>
<path d="M132.572 159.802C132.326 160.563 132.132 161.337 131.991 162.12C131.814 162.735 131.768 163.375 131.856 164.005C131.856 164.128 132.074 164.118 132.136 164.005C132.462 163.411 132.686 162.776 132.801 162.12C133.009 161.394 133.237 160.678 133.414 159.952C133.539 159.491 132.739 159.33 132.572 159.802Z" fill="#263238"/>
<path d="M132.188 156.023C132.302 155.363 132.417 154.713 132.552 154.062C132.687 153.412 132.874 152.705 132.947 152.026C132.947 151.913 133.154 151.951 133.134 152.026C133.019 152.686 133.009 153.365 132.947 154.025C132.884 154.684 132.822 155.354 132.749 156.013C132.603 157.257 132.388 158.493 132.105 159.717C132.823 159.606 133.504 159.352 134.1 158.973C134.652 158.457 135.015 157.798 135.139 157.088C135.347 156.334 135.534 155.58 135.752 154.826C136.046 154.009 136.259 153.17 136.386 152.319C136.386 152.206 136.594 152.243 136.573 152.319C136.404 154.11 136.035 155.882 135.472 157.606C135.35 158.29 134.963 158.912 134.381 159.359C133.63 159.722 132.807 159.943 131.96 160.009C131.866 160.009 131.721 160.009 131.731 159.906C131.812 158.605 131.965 157.309 132.188 156.023Z" fill="#263238"/>
<path d="M97.1523 177.936C96.8406 175.052 96.3211 172.186 95.9782 169.302C95.3285 163.529 95.7145 157.697 97.1212 152.036C97.1212 151.932 96.9653 151.885 96.9445 152.036C95.7143 157.008 95.1422 162.096 95.2405 167.191C95.521 172.281 96.5185 177.295 96.6017 182.394C96.6848 187.493 96.2484 192.714 95.8847 197.86C95.521 203.006 95.147 208.228 94.7833 213.402C93.3079 234.222 91.9467 255.042 90.544 275.871C90.1561 281.677 89.7821 287.489 89.4219 293.307C89.0478 299.217 88.5906 305.136 88.3828 311.064C88.3828 311.573 89.1933 311.535 89.2452 311.064C90.2219 300.612 90.783 290.122 91.5207 279.669C92.2584 269.217 92.913 258.934 93.5988 248.567C94.2846 238.199 94.9807 227.832 95.6769 217.464C96.0094 212.287 96.3557 207.109 96.7159 201.932C97.0484 196.776 97.4641 191.611 97.5472 186.446C97.5929 183.605 97.4611 180.764 97.1523 177.936Z" fill="#263238"/>
<path d="M112.468 151.65C112.458 151.636 112.445 151.625 112.43 151.617C112.414 151.61 112.397 151.605 112.379 151.605C112.362 151.605 112.344 151.61 112.329 151.617C112.313 151.625 112.3 151.636 112.291 151.65C112.033 152.333 111.896 153.049 111.886 153.771C111.751 154.543 111.553 155.306 111.294 156.052C110.816 157.551 109.922 158.915 108.696 160.01C105.974 162.319 102.327 163.177 98.8146 163.95C98.7913 163.956 98.771 163.969 98.7566 163.987C98.7422 164.005 98.7344 164.027 98.7344 164.049C98.7344 164.071 98.7422 164.092 98.7566 164.11C98.771 164.128 98.7913 164.141 98.8146 164.148C100.901 164.233 102.986 163.938 104.945 163.281C106.693 162.796 108.305 161.976 109.673 160.877C110.979 159.75 111.871 158.286 112.229 156.683C112.414 155.845 112.512 154.993 112.52 154.138C112.52 153.733 112.52 153.328 112.52 152.913C112.594 152.493 112.576 152.064 112.468 151.65Z" fill="#263238"/>
<path d="M132.832 98.7552C133.725 105.164 147.565 128.991 162.299 139.547C167.702 143.42 196.348 145.711 203.518 145.202C211.903 144.617 213.16 126.512 208.464 125.098C202.593 123.336 175.432 121.158 170.102 119.443C163.619 117.313 151.815 103.637 140.593 95.1736C134.827 90.791 132.146 93.8259 132.832 98.7552Z" fill="#AD6359"/>
<path d="M203.519 145.212C206.169 145.146 218.294 143.883 221.588 142.846C224.882 141.81 234.057 138.209 233.475 135.844C232.893 133.478 230.067 134.336 230.067 134.336C230.067 134.336 233.693 132.253 232.831 129.925C231.968 127.597 227.635 129.067 227.635 129.067C227.635 129.067 231.189 126.682 230.139 124.411C229.09 122.14 225.048 124.279 225.048 124.279C225.048 124.279 228.415 122.234 226.69 120.688C224.612 118.803 218.876 123.242 215.156 124.138C214.304 124.345 197.68 127.163 197.68 127.163L203.519 145.212Z" fill="#AD6359"/>
<path d="M225.472 124.099C221.243 127.322 218.781 128.076 213.399 128.745C213.38 128.751 213.364 128.762 213.353 128.776C213.342 128.79 213.336 128.808 213.336 128.825C213.336 128.843 213.342 128.86 213.353 128.874C213.364 128.889 213.38 128.9 213.399 128.905C218.729 128.679 221.971 128.142 225.649 124.278C225.805 124.089 225.639 123.948 225.472 124.099Z" fill="#263238"/>
<path d="M227.998 128.801C223.291 131.855 220.631 132.637 215.082 133.74C215.01 133.74 215.03 133.881 215.082 133.872C220.652 133.222 223.873 132.619 228.143 129.056C228.32 128.877 228.216 128.66 227.998 128.801Z" fill="#263238"/>
<path d="M229.775 134.381C224.985 136.992 222.107 138.019 216.537 138.444C216.51 138.444 216.484 138.453 216.464 138.471C216.445 138.489 216.434 138.513 216.434 138.538C216.434 138.563 216.445 138.587 216.464 138.604C216.484 138.622 216.51 138.632 216.537 138.632C221.393 138.897 226.17 137.422 229.837 134.523C230.118 134.325 230.076 134.221 229.775 134.381Z" fill="#263238"/>
<path d="M193.832 125.183C196.631 123.543 199.558 122.091 202.591 120.838C205.521 119.896 217.886 119.896 218.021 122.328C218.208 125.457 211.07 126.71 207.485 126.918C207.485 126.918 207.932 134.147 203.017 136.06C198.102 137.973 193.832 125.183 193.832 125.183Z" fill="#AD6359"/>
<path d="M217.773 123.204C215.695 126.163 210.947 126.154 207.487 126.587C207.435 126.59 207.384 126.604 207.339 126.629C207.294 126.654 207.257 126.689 207.232 126.73C207.206 126.771 207.192 126.818 207.191 126.865C207.19 126.913 207.203 126.96 207.227 127.002C207.227 130.046 206.188 134.325 203.227 136.125C203.133 136.182 203.227 136.304 203.3 136.257C206.739 134.712 208.131 130.602 207.934 127.238C211.487 126.851 216.246 126.672 217.805 123.213C217.815 123.194 217.784 123.185 217.773 123.204Z" fill="#263238"/>
<path d="M178.767 144.862C178.767 144.862 164.096 141.224 162.308 139.952C160.358 138.561 158.499 137.07 156.739 135.484C143.387 123.58 135.324 107.35 133.142 101.695C130.836 95.6728 132.955 89.9047 139.138 93.7878C139.635 94.1072 140.114 94.4501 140.572 94.8151C147.845 100.564 167.296 118.048 169.665 118.943C172.034 119.839 183.453 121.196 183.453 121.196L178.767 144.862Z" fill="#384259"/>
<path d="M156.739 135.484C143.387 123.58 135.324 107.35 133.142 101.695C130.836 95.6728 132.955 89.9047 139.138 93.7878L156.739 135.484Z" fill="#263238"/>
<path d="M178.717 120.783C178.034 122.602 177.469 124.455 177.024 126.334C176.514 128.219 175.985 130.104 175.559 131.989C174.633 135.686 173.94 139.427 173.48 143.195C173.48 143.218 173.49 143.239 173.508 143.255C173.525 143.271 173.549 143.28 173.574 143.28C173.599 143.28 173.623 143.271 173.64 143.255C173.658 143.239 173.667 143.218 173.667 143.195C174.79 139.501 175.621 135.721 176.473 131.97C176.899 130.085 177.283 128.257 177.709 126.409C178.135 124.562 178.645 122.639 178.873 120.811C178.877 120.792 178.873 120.773 178.861 120.757C178.85 120.741 178.831 120.73 178.811 120.726C178.79 120.722 178.769 120.726 178.751 120.737C178.734 120.747 178.721 120.764 178.717 120.783Z" fill="#263238"/>
<path d="M147.067 111.81C147.409 113.205 147.68 114.637 147.887 116.108C147.882 116.051 147.882 115.994 147.887 115.938C147.97 115.137 148.033 114.317 148.189 113.525C148.189 113.525 148.272 113.478 148.272 113.525C148.325 114.34 148.291 115.158 148.168 115.966C148.116 116.353 148.064 116.739 148.002 117.116C148.074 117.766 148.137 118.417 148.178 119.058C148.261 120.283 148.521 125.514 148.49 126.409C148.49 126.598 148.251 126.617 148.199 126.409C148.002 125.467 147.482 120.104 147.337 118.869C147.065 116.515 146.933 114.149 146.942 111.782C146.963 111.753 147.046 111.763 147.067 111.81Z" fill="#263238"/>
<path d="M148.72 150.961C146.642 152.658 144.106 155.136 129.518 156.06C128.604 156.06 127.669 156.126 126.733 156.06C112.686 155.702 92.9749 145.693 91.8008 144.901C91.8008 144.901 106.94 107.747 126.962 93.4874C129.819 91.4421 135.95 92.4506 139.784 94.5524C141.155 95.3064 145.686 102.177 146.6 108.435C147.514 114.694 150.787 149.265 148.72 150.961Z" fill="#384259"/>
<path d="M137.339 103.864C133.807 104.128 128.746 98.5861 127.084 94.439C126.97 94.1563 127.884 91.4513 128.819 88.1149C129.38 86.0885 129.952 83.8265 130.305 81.7247C130.378 81.2911 131.864 82.309 131.864 82.309L134.752 83.3835L144.311 86.9462C143.034 89.4596 142.102 92.1058 141.537 94.8255C141.506 95.1201 141.506 95.4168 141.537 95.7114C141.542 95.7585 141.542 95.8058 141.537 95.8528C141.506 97.521 140.747 103.581 137.339 103.864Z" fill="#AD6359"/>
<path d="M141.498 95.7015C141.503 95.7485 141.503 95.7958 141.498 95.8429C140.993 95.837 140.489 95.7929 139.992 95.7109C130.225 94.1558 130.921 82.6855 130.921 82.6855L134.765 83.3736L144.325 86.9362C143.047 89.4496 142.116 92.0959 141.55 94.8155C141.502 95.1087 141.485 95.4054 141.498 95.7015Z" fill="#263238"/>
<path d="M129.321 67.9176C127.461 72.5735 129.446 86.3529 132.978 89.5951C138.101 94.3077 146.881 95.0899 151.338 89.4161C155.671 83.9307 152.731 66.0043 148.751 63.026C142.88 58.6622 132.064 61.0467 129.321 67.9176Z" fill="#AD6359"/>
<path d="M143.158 77.4551C143.158 77.4551 143.085 77.5116 143.096 77.5493C143.252 78.4918 143.272 79.5569 142.379 79.9716C142.379 79.9716 142.379 80.0281 142.379 80.0187C143.511 79.7454 143.48 78.3033 143.158 77.4551Z" fill="#263238"/>
<path d="M142.111 76.587C140.449 76.6624 140.74 79.669 142.278 79.603C143.815 79.537 143.504 76.521 142.111 76.587Z" fill="#263238"/>
<path d="M149.457 76.834C149.457 76.834 149.54 76.834 149.54 76.9094C149.603 77.8519 149.842 78.9075 150.797 79.1525C149.623 79.1431 149.343 77.7294 149.457 76.834Z" fill="#263238"/>
<path d="M150.289 75.7866C151.931 75.551 152.367 78.5482 150.819 78.7744C149.271 79.0006 148.907 75.994 150.289 75.7866Z" fill="#263238"/>
<path d="M140.821 74.3637C141.257 74.2224 141.642 74.0244 142.068 73.8454C142.531 73.7228 142.937 73.4643 143.221 73.1102C143.29 72.9834 143.31 72.8392 143.278 72.7008C143.246 72.5624 143.164 72.4377 143.044 72.3468C142.774 72.2053 142.468 72.1309 142.156 72.1309C141.844 72.1309 141.538 72.2053 141.268 72.3468C140.671 72.551 140.182 72.9514 139.896 73.4684C139.844 73.5879 139.83 73.7184 139.857 73.8447C139.883 73.971 139.949 74.0878 140.046 74.1817C140.143 74.2755 140.267 74.3424 140.404 74.3746C140.541 74.4069 140.686 74.4031 140.821 74.3637Z" fill="#263238"/>
<path d="M151.328 74.7697C150.873 74.7243 150.422 74.6551 149.977 74.5623C149.491 74.5482 149.023 74.3892 148.647 74.1099C148.554 73.9987 148.504 73.863 148.504 73.7235C148.504 73.584 148.554 73.4484 148.647 73.3371C148.86 73.1311 149.132 72.9818 149.432 72.9054C149.733 72.8291 150.05 72.8284 150.351 72.9035C150.987 72.9633 151.576 73.2354 152.003 73.667C152.093 73.7734 152.146 73.9012 152.157 74.0348C152.168 74.1684 152.135 74.3019 152.063 74.419C151.992 74.5361 151.884 74.6316 151.753 74.6939C151.622 74.7562 151.474 74.7825 151.328 74.7697Z" fill="#263238"/>
<path d="M148.013 81.9045C148.117 82.5827 148.183 83.2654 148.21 83.9497C146.805 83.9549 145.407 84.1324 144.054 84.4775C143.742 84.5718 143.742 84.3267 144.054 84.1382C145.112 83.5669 146.337 83.3007 147.566 83.3748C147.566 83.1957 147.213 81.2447 147.327 81.2353C147.885 81.2868 148.434 81.4041 148.958 81.5841C148.636 78.6811 147.805 75.8442 147.524 72.9507C147.524 72.8471 147.68 72.8093 147.712 72.9036C148.716 75.9169 149.38 79.0147 149.696 82.1495C149.79 82.5171 148.304 82.0082 148.013 81.9045Z" fill="#263238"/>
<path d="M130.423 79.4061C133.041 79.2365 132.709 73.4306 132.709 73.4306C132.709 73.4306 136.698 72.7332 138.579 67.7756C138.579 67.7756 143.774 70.6031 148.066 69.8868C154.799 68.6993 154.508 60.7351 151.962 59.1423C148.346 56.8803 142.008 60.3016 142.008 60.3016C142.008 60.3016 132.324 57.9736 129.539 63.9302C128.289 64.0232 127.124 64.5427 126.28 65.384C125.435 66.2253 124.974 67.3259 124.988 68.4637C124.739 72.752 128.48 79.5286 130.423 79.4061Z" fill="#263238"/>
<path d="M131.784 74.1276C133.721 73.8024 135.484 72.9002 136.792 71.564C137.495 70.8416 137.995 69.976 138.25 69.0407C138.505 68.1054 138.508 67.128 138.257 66.1917C138.263 66.1751 138.275 66.1607 138.291 66.1505C138.307 66.1403 138.326 66.1348 138.345 66.1348C138.365 66.1348 138.384 66.1403 138.399 66.1505C138.415 66.1607 138.427 66.1751 138.434 66.1917C138.745 67.172 138.813 68.2026 138.633 69.2096C138.453 70.2166 138.03 71.175 137.395 72.0164C136.759 72.8138 135.906 73.4471 134.918 73.8538C133.93 74.2604 132.843 74.4262 131.763 74.3349C131.701 74.2878 131.669 74.1464 131.784 74.1276Z" fill="#263238"/>
<path d="M141.745 60.5658C142.579 59.3161 143.887 58.3847 145.423 57.9456C147.291 57.4648 149.289 57.6258 151.034 58.398C151.728 58.7281 152.314 59.2179 152.734 59.8185C153.153 60.419 153.391 61.109 153.424 61.8193C153.445 63.4673 152.839 65.0715 151.709 66.3622C151.709 66.3622 151.616 66.3622 151.647 66.3622C152.549 65.1437 153.01 63.701 152.967 62.234C152.938 61.536 152.693 60.8595 152.259 60.2825C151.825 59.7055 151.221 59.2515 150.514 58.973C147.73 57.8891 143.678 58.1153 141.89 60.6883C141.838 60.7449 141.683 60.6506 141.745 60.5658Z" fill="#263238"/>
<path d="M131.959 79.1882C131.959 79.1882 128.707 74.6736 126.453 75.7198C124.198 76.766 126.556 83.2598 129.123 84.2023C129.442 84.3439 129.79 84.4254 130.145 84.442C130.5 84.4587 130.855 84.4101 131.189 84.2992C131.523 84.1883 131.828 84.0173 132.088 83.7966C132.347 83.5759 132.554 83.31 132.697 83.0148L131.959 79.1882Z" fill="#AD6359"/>
<path d="M127.129 77.5586C127.129 77.5586 127.129 77.6057 127.129 77.6246C127.95 78.0252 128.67 78.5779 129.241 79.2468C129.812 79.9158 130.221 80.686 130.443 81.5077C130.344 81.3384 130.205 81.1909 130.036 81.0754C129.867 80.9598 129.673 80.879 129.466 80.8387C129.259 80.7983 129.045 80.7993 128.839 80.8416C128.633 80.8839 128.439 80.9665 128.272 81.0836C128.272 81.0836 128.272 81.1778 128.272 81.1684C128.595 81.0852 128.938 81.095 129.254 81.1963C129.571 81.2975 129.845 81.4854 130.038 81.7339C130.361 82.1523 130.632 82.601 130.849 83.0722C130.932 83.223 131.223 83.1476 131.171 82.978C131.316 80.8385 129.612 77.8413 127.129 77.5586Z" fill="#263238"/>
<path d="M33.9456 369.669H0V364.014H33.9456C60.836 364.014 68.5042 343.137 70.1978 325.625C71.5278 311.912 72.3382 295.211 73.2006 277.558C76.4321 211.413 79.7778 143.016 109.12 143.016H136.011V148.671H109.1C85.7211 148.671 82.0845 223.307 79.4141 277.793C78.5413 295.541 77.7205 312.299 76.3905 326.144C73.689 354.202 58.6125 369.669 33.9456 369.669Z" fill="#F73859"/>
<path opacity="0.2" d="M136.01 142.988V148.643H114.564L113.234 142.988H136.01Z" fill="black"/>
<path d="M229.296 182.346H240.746V109.792H229.296V182.346Z" fill="#F73859"/>
<path d="M229.296 113.232H185.781V178.152H229.296V113.232Z" fill="#F73859"/>
<path opacity="0.2" d="M229.295 113.232V178.152H218.489L213.637 113.232H229.295Z" fill="black"/>
<path d="M119.865 151.592H152.148V140.027H119.865V151.592Z" fill="#F73859"/>
<path d="M152.146 140.037H119.863V151.602H152.146V140.037Z" fill="#F73859"/>
<path opacity="0.2" d="M140.812 151.592L141.872 140.037H152.148V151.592H140.812Z" fill="black"/>
<path d="M185.781 174.307H158.538C156.843 174.307 155.217 173.696 154.019 172.609C152.821 171.522 152.147 170.048 152.147 168.51V123.609C152.147 122.072 152.821 120.598 154.019 119.511C155.217 118.424 156.843 117.813 158.538 117.813H185.781V174.307Z" fill="#F73859"/>
<path opacity="0.2" d="M171.465 174.306L176.317 117.822H185.783V174.306H171.465Z" fill="black"/>
<g opacity="0.2">
<path opacity="0.2" d="M173.966 162.883H176.117V129.235H173.966V162.883Z" fill="black"/>
<path opacity="0.2" d="M167.888 162.883H170.039V129.235H167.888V162.883Z" fill="black"/>
<path opacity="0.2" d="M161.802 162.883H163.953V129.235H161.802V162.883Z" fill="black"/>
</g>
<path d="M117.881 106.551C116.842 120.16 115.658 147.879 122.287 156.013C130.983 166.682 155.536 173.157 162.809 175.099C165.926 175.938 173.397 157.191 171.548 154.496C169.698 151.8 144.356 146.013 142.361 144.43C140.366 142.846 134.049 120.754 131.046 109.501C127.16 95.3066 118.307 101.178 117.881 106.551Z" fill="#AD6359"/>
<path d="M190.268 161.697C194.269 162.564 200.337 160.698 200.534 163.478C200.711 165.948 196.378 166.862 196.378 166.862C196.378 166.862 201.635 167.267 200.991 169.972C200.347 172.677 195.36 172.8 195.36 172.8C195.36 172.8 200.181 173.393 199.318 176.051C198.456 178.709 193.832 179.077 193.832 179.077C193.832 179.077 195.048 179.897 193.51 181.527C191.318 183.865 184.003 183.591 180.231 182.63C176.459 181.668 163.399 175.599 161.414 174.628L168.033 152.573C168.033 152.573 175.628 151.48 179.556 151.348C183.483 151.216 196.544 154.044 195.993 157.003C195.443 159.963 186.247 157.851 183.868 157.776C181.488 157.701 181.073 158.181 182.112 158.973C182.787 159.529 188.492 161.31 190.268 161.697Z" fill="#AD6359"/>
<path d="M196.141 166.814C190 167.757 187.133 167.135 181.501 164.929C181.387 164.882 181.293 165.024 181.407 165.08C186.707 167.672 190.187 168.85 196.203 167.069C196.505 166.993 196.442 166.777 196.141 166.814Z" fill="#263238"/>
<path d="M195.598 172.704C189.125 173.128 186.019 172.535 179.93 170.631C179.847 170.631 179.784 170.735 179.867 170.772C185.676 173.081 189.167 174.203 195.578 173.006C195.869 172.959 195.9 172.685 195.598 172.704Z" fill="#263238"/>
<path d="M193.751 179.039C187.444 179.039 184.005 178.511 178.353 175.985C178.327 175.974 178.297 175.971 178.269 175.979C178.241 175.987 178.217 176.004 178.203 176.026C178.188 176.049 178.184 176.076 178.19 176.102C178.197 176.127 178.214 176.15 178.238 176.164C183.724 179.256 188.016 179.934 193.73 179.218C194.115 179.162 194.146 179.039 193.751 179.039Z" fill="#263238"/>
<path d="M143.638 170.678C143.638 170.678 123.823 161.649 120.779 154.731C117.039 146.098 115.511 120.924 116.966 108.011C118.42 95.099 128.333 96.7013 131.512 108.115C134.63 119.255 141.664 141.508 142.391 142.554C143.316 143.902 154.621 146.437 154.621 146.437" fill="#384259"/>
<path d="M141.652 139.671C141.309 138.606 140.707 136.203 140.364 135.166C139.668 133.093 138.972 131.01 138.286 128.936C137.6 126.863 136.862 124.78 136.104 122.716C135.969 122.367 135.844 122.009 135.719 121.66C135.782 121.434 135.501 118.701 135.522 118.031C135.522 117.928 135.335 117.918 135.345 118.031C135.373 118.701 135.349 119.372 135.273 120.039C135.273 120.161 135.273 120.293 135.273 120.416C134.795 119.059 134.317 117.711 133.828 116.391C133.828 116.297 133.62 116.335 133.652 116.391C134.587 119.219 135.044 121 135.73 123.291C136.415 125.581 137.122 127.711 137.808 129.888C138.494 132.065 139.294 134.28 140.052 136.486C140.479 137.793 140.978 139.079 141.548 140.34C141.985 141.189 142.006 140.793 141.652 139.671Z" fill="#263238"/>
<path d="M119.302 147.275C118.897 144.948 118.491 142.563 118.18 140.263C117.546 135.551 117.141 130.914 116.912 126.201C116.777 123.506 116.559 120.829 116.393 118.143C116.393 118.115 116.381 118.089 116.359 118.069C116.338 118.05 116.309 118.039 116.278 118.039C116.248 118.039 116.219 118.05 116.197 118.069C116.176 118.089 116.164 118.115 116.164 118.143C116.164 120.537 116.07 122.921 116.164 125.315C116.164 125.664 116.164 126.013 116.164 126.361L116.039 125.871C115.655 124.505 115.115 123.166 114.782 121.781C114.773 121.765 114.758 121.752 114.739 121.745C114.721 121.739 114.701 121.738 114.682 121.744C114.663 121.749 114.647 121.761 114.637 121.777C114.627 121.792 114.623 121.81 114.626 121.828C115 123.204 115.198 124.655 115.551 126.003C115.738 126.691 115.925 127.379 116.133 128.067L116.237 128.359C116.299 129.736 116.372 131.112 116.476 132.488C116.757 137.21 117.358 141.913 118.273 146.569C118.901 149.613 119.808 152.605 120.985 155.513C120.991 155.527 121.002 155.54 121.016 155.549C121.03 155.557 121.046 155.562 121.063 155.562C121.08 155.562 121.097 155.557 121.111 155.549C121.124 155.54 121.135 155.527 121.141 155.513C120.528 153.185 119.717 149.603 119.302 147.275Z" fill="#263238"/>
<path d="M150.944 146.428C149.859 148.12 148.887 149.87 148.034 151.668C147.12 153.44 146.195 155.212 145.333 157.003C143.584 160.529 142.054 164.142 140.751 167.823C140.748 167.844 140.753 167.864 140.765 167.882C140.777 167.9 140.795 167.913 140.816 167.921C140.838 167.928 140.861 167.929 140.883 167.924C140.905 167.918 140.924 167.906 140.938 167.889C142.87 164.402 144.522 160.773 146.206 157.182C147.037 155.41 147.837 153.619 148.658 151.847C149.479 150.076 150.414 148.294 151.048 146.466C151.068 146.409 150.975 146.381 150.944 146.428Z" fill="#263238"/>
<path d="M259.926 97.6527C259.788 97.6527 259.656 97.6031 259.558 97.5147C259.461 97.4263 259.406 97.3065 259.406 97.1815V83.9205C259.406 83.7955 259.461 83.6756 259.558 83.5873C259.656 83.4989 259.788 83.4492 259.926 83.4492C260.064 83.4492 260.196 83.4989 260.293 83.5873C260.391 83.6756 260.445 83.7955 260.445 83.9205V97.1815C260.445 97.3065 260.391 97.4263 260.293 97.5147C260.196 97.6031 260.064 97.6527 259.926 97.6527Z" fill="#263238"/>
<path d="M233.474 104.004C233.382 104.005 233.291 103.983 233.211 103.942C233.131 103.9 233.064 103.841 233.017 103.769L225.744 92.2797C225.701 92.2263 225.671 92.1655 225.656 92.101C225.641 92.0365 225.641 91.9699 225.656 91.9053C225.671 91.8408 225.7 91.7798 225.743 91.7264C225.786 91.673 225.84 91.6282 225.903 91.5951C225.966 91.562 226.036 91.5411 226.108 91.534C226.18 91.5269 226.253 91.5336 226.322 91.5537C226.392 91.5738 226.456 91.6069 226.51 91.6507C226.564 91.6946 226.608 91.7483 226.637 91.8084L233.911 103.298C233.946 103.35 233.969 103.409 233.979 103.471C233.988 103.532 233.984 103.594 233.967 103.654C233.949 103.714 233.919 103.77 233.877 103.819C233.835 103.867 233.783 103.908 233.724 103.938C233.649 103.98 233.563 104.003 233.474 104.004Z" fill="#263238"/>
<path d="M225.867 198.556C225.776 198.556 225.686 198.534 225.608 198.49C225.55 198.456 225.5 198.411 225.461 198.359C225.423 198.307 225.396 198.248 225.384 198.186C225.371 198.125 225.372 198.061 225.388 198C225.403 197.939 225.432 197.881 225.473 197.83L232.746 186.351C232.78 186.297 232.826 186.249 232.88 186.212C232.934 186.174 232.996 186.146 233.062 186.13C233.128 186.113 233.197 186.109 233.265 186.117C233.333 186.125 233.398 186.145 233.458 186.176C233.517 186.207 233.569 186.248 233.611 186.298C233.653 186.347 233.683 186.403 233.701 186.463C233.719 186.523 233.724 186.585 233.715 186.647C233.706 186.709 233.684 186.768 233.65 186.822L226.377 198.301C226.329 198.385 226.256 198.454 226.165 198.499C226.074 198.545 225.971 198.564 225.867 198.556Z" fill="#263238"/>
<path d="M259.594 206.833C259.456 206.833 259.324 206.783 259.226 206.695C259.129 206.607 259.074 206.487 259.074 206.362V193.12C259.074 192.995 259.129 192.875 259.226 192.786C259.324 192.698 259.456 192.648 259.594 192.648C259.731 192.651 259.861 192.701 259.958 192.789C260.055 192.877 260.111 192.995 260.113 193.12V206.381C260.108 206.502 260.051 206.617 259.954 206.702C259.857 206.786 259.728 206.833 259.594 206.833Z" fill="#263238"/>
<path d="M293.364 198.709C293.273 198.708 293.184 198.686 293.106 198.645C293.027 198.604 292.962 198.545 292.917 198.473L285.644 186.994C285.609 186.94 285.587 186.88 285.579 186.819C285.57 186.757 285.574 186.695 285.592 186.635C285.61 186.575 285.641 186.519 285.683 186.469C285.724 186.42 285.776 186.379 285.836 186.348C285.895 186.317 285.961 186.297 286.028 186.289C286.096 186.281 286.165 186.285 286.231 186.302C286.298 186.318 286.359 186.346 286.414 186.383C286.468 186.421 286.513 186.469 286.548 186.522L293.821 198.002C293.856 198.055 293.879 198.114 293.889 198.175C293.898 198.236 293.894 198.299 293.877 198.358C293.859 198.418 293.829 198.474 293.787 198.523C293.745 198.572 293.693 198.613 293.634 198.643C293.553 198.688 293.459 198.711 293.364 198.709Z" fill="#263238"/>
<path d="M286.34 104.156C286.248 104.156 286.158 104.133 286.08 104.09C286.021 104.059 285.969 104.019 285.927 103.97C285.885 103.921 285.855 103.865 285.837 103.805C285.82 103.745 285.816 103.683 285.825 103.622C285.835 103.561 285.858 103.502 285.893 103.449L293.167 91.9597C293.242 91.8654 293.354 91.7998 293.48 91.7758C293.605 91.7517 293.737 91.7708 293.848 91.8295C293.959 91.8881 294.042 91.9821 294.081 92.0932C294.121 92.2043 294.113 92.3246 294.06 92.431L286.787 103.92C286.74 103.99 286.675 104.048 286.597 104.089C286.518 104.131 286.43 104.153 286.34 104.156Z" fill="#263238"/>
</svg>
